<svg width="149" height="114" viewBox="0 0 149 114" fill="none" xmlns="http://www.w3.org/2000/svg">
<path d="M38.744 11.1115H120.151V72.9337H38.744V11.1115Z" fill="white"/>
<path d="M38.744 10.6749C37.474 10.5723 38.744 72.5028 38.3074 72.9348C38.2116 74.2071 119.717 72.9348 120.159 73.3714C121.429 73.4729 120.159 11.5424 120.596 11.1103C120.684 9.83924 39.1795 11.1115 38.744 10.6749ZM39.1806 11.5481H119.716V72.4971H39.1795L39.1806 11.5481Z" fill="#D5F4FF"/>
<path d="M38.744 29.6935C38.2014 29.6844 38.1603 30.5748 38.744 30.5656C39.2 30.1324 120.668 31.3978 120.588 30.1301C120.686 28.8568 39.1783 30.129 38.744 29.6935Z" fill="#D5F4FF"/>
<path d="M38.744 53.3656C38.2014 53.3576 38.1603 54.248 38.744 54.2388C39.2 53.8056 120.668 55.071 120.588 53.8034C120.686 52.53 39.1783 53.8079 38.744 53.3656Z" fill="#D5F4FF"/>
<path d="M40.5532 12.8739H45.1508V29.6923H40.5532V12.8739Z" fill="#D5F4FF"/>
<path d="M40.5532 14.1245H45.1508V15.3899H40.5532V14.1245Z" fill="#B0EBFF"/>
<path d="M40.5532 18.3915H45.1508V27.0771H40.5532V18.3915Z" fill="#B0EBFF"/>
<path d="M45.9899 12.8739H50.5875V29.6923H45.9899V12.8739Z" fill="#D5F4FF"/>
<path d="M45.9899 14.1245H50.5875V15.3899H45.9899V14.1245Z" fill="#B0EBFF"/>
<path d="M45.9899 18.3915H50.5875V27.0771H45.9899V18.3915Z" fill="#B0EBFF"/>
<path d="M51.4276 12.8739H56.0253V29.6923H51.4276V12.8739Z" fill="#D5F4FF"/>
<path d="M51.4276 14.1245H56.0252V15.3899H51.4276V14.1245Z" fill="#B0EBFF"/>
<path d="M51.4276 18.3915H56.0252V27.0771H51.4276V18.3915Z" fill="#B0EBFF"/>
<path d="M57.0752 12.8739H61.6728V29.6923H57.0752V12.8739Z" fill="#D5F4FF"/>
<path d="M57.0752 14.1245H61.6728V15.3899H57.0752V14.1245Z" fill="#B0EBFF"/>
<path d="M57.0752 18.3915H61.6728V27.0771H57.0752V18.3915Z" fill="#B0EBFF"/>
<path d="M104.546 12.696L108.705 14.6557L101.537 29.8679L97.3788 27.9093L104.546 12.696Z" fill="#D5F4FF"/>
<path d="M104.012 13.8269L108.17 15.7866L107.629 16.9345L103.47 14.9749L104.012 13.8269Z" fill="#B0EBFF"/>
<path d="M102.194 17.6881L106.353 19.6466L102.652 27.5047L98.4925 25.545L102.194 17.6881Z" fill="#B0EBFF"/>
<path d="M108.74 12.8739H113.338V29.6923H108.74V12.8739Z" fill="#D5F4FF"/>
<path d="M108.74 14.1245H113.338V15.3899H108.74V14.1245Z" fill="#B0EBFF"/>
<path d="M108.74 18.3915H113.338V27.0771H108.74V18.3915Z" fill="#B0EBFF"/>
<path d="M114.173 12.8739H118.772V29.6923H114.173V12.8739Z" fill="#D5F4FF"/>
<path d="M114.173 14.1245H118.772V15.3899H114.173V14.1245Z" fill="#B0EBFF"/>
<path d="M114.173 18.3915H118.772V27.0771H114.173V18.3915Z" fill="#B0EBFF"/>
<path d="M40.5532 36.5471H45.1508V53.3655H40.5532V36.5471Z" fill="#D5F4FF"/>
<path d="M40.5532 37.7976H45.1508V39.0664H40.5532V37.7976Z" fill="#B0EBFF"/>
<path d="M40.5532 42.0658H45.1508V50.7515H40.5532V42.0658Z" fill="#B0EBFF"/>
<path d="M45.9899 36.5471H50.5875V53.3655H45.9899V36.5471Z" fill="#D5F4FF"/>
<path d="M45.9899 37.7976H50.5875V39.0664H45.9899V37.7976Z" fill="#B0EBFF"/>
<path d="M45.9899 42.0658H50.5875V50.7515H45.9899V42.0658Z" fill="#B0EBFF"/>
<path d="M51.4276 36.5471H56.0253V53.3655H51.4276V36.5471Z" fill="#D5F4FF"/>
<path d="M51.4276 37.7976H56.0252V39.0664H51.4276V37.7976Z" fill="#B0EBFF"/>
<path d="M51.4276 42.0658H56.0252V50.7515H51.4276V42.0658Z" fill="#B0EBFF"/>
<path d="M56.87 36.5471H61.4676V53.3655H56.87V36.5471Z" fill="#D5F4FF"/>
<path d="M56.87 37.7976H61.4676V39.0664H56.87V37.7976Z" fill="#B0EBFF"/>
<path d="M56.87 42.0658H61.4676V50.7515H56.87V42.0658Z" fill="#B0EBFF"/>
<path d="M97.861 36.5471H102.459V53.3655H97.861V36.5471Z" fill="#D5F4FF"/>
<path d="M97.861 37.7976H102.459V39.0664H97.861V37.7976Z" fill="#B0EBFF"/>
<path d="M97.861 42.0658H102.459V50.7515H97.861V42.0658Z" fill="#B0EBFF"/>
<path d="M103.298 36.5471H107.895V53.3655H103.298V36.5471Z" fill="#D5F4FF"/>
<path d="M103.298 37.7976H107.895V39.0664H103.298V37.7976Z" fill="#B0EBFF"/>
<path d="M103.298 42.0658H107.895V50.7515H103.298V42.0658Z" fill="#B0EBFF"/>
<path d="M108.74 36.5471H113.338V53.3655H108.74V36.5471Z" fill="#D5F4FF"/>
<path d="M108.74 37.7976H113.338V39.0664H108.74V37.7976Z" fill="#B0EBFF"/>
<path d="M108.74 42.0658H113.338V50.7515H108.74V42.0658Z" fill="#B0EBFF"/>
<path d="M114.173 36.5471H118.772V53.3655H114.173V36.5471Z" fill="#D5F4FF"/>
<path d="M114.173 37.7976H118.772V39.0664H114.173V37.7976Z" fill="#B0EBFF"/>
<path d="M114.173 42.0658H118.772V50.7515H114.173V42.0658Z" fill="#B0EBFF"/>
<path d="M40.5532 55.6079H45.1508V72.4263H40.5532V55.6079Z" fill="#D5F4FF"/>
<path d="M40.5532 56.8585H45.1508V58.1273H40.5532V56.8585Z" fill="#B0EBFF"/>
<path d="M40.5532 61.1255H45.1508V69.8111H40.5532V61.1255Z" fill="#B0EBFF"/>
<path d="M45.9899 55.6079H50.5875V72.4263H45.9899V55.6079Z" fill="#D5F4FF"/>
<path d="M45.9899 56.8585H50.5875V58.1273H45.9899V56.8585Z" fill="#B0EBFF"/>
<path d="M45.9899 61.1255H50.5875V69.8111H45.9899V61.1255Z" fill="#B0EBFF"/>
<path d="M51.4276 55.6079H56.0253V72.4263H51.4276V55.6079Z" fill="#D5F4FF"/>
<path d="M51.4276 56.8585H56.0252V58.1273H51.4276V56.8585Z" fill="#B0EBFF"/>
<path d="M51.4276 61.1255H56.0252V69.8111H51.4276V61.1255Z" fill="#B0EBFF"/>
<path d="M56.87 55.6079H61.4676V72.4263H56.87V55.6079Z" fill="#D5F4FF"/>
<path d="M56.87 56.8585H61.4676V58.1273H56.87V56.8585Z" fill="#B0EBFF"/>
<path d="M56.87 61.1255H61.4676V69.8111H56.87V61.1255Z" fill="#B0EBFF"/>
<path d="M97.861 55.6079H102.459V72.4263H97.861V55.6079Z" fill="#D5F4FF"/>
<path d="M97.861 56.8585H102.459V58.1273H97.861V56.8585Z" fill="#B0EBFF"/>
<path d="M97.861 61.1255H102.459V69.8111H97.861V61.1255Z" fill="#B0EBFF"/>
<path d="M103.298 55.6079H107.895V72.4263H103.298V55.6079Z" fill="#D5F4FF"/>
<path d="M103.298 56.8585H107.895V58.1273H103.298V56.8585Z" fill="#B0EBFF"/>
<path d="M103.298 61.1256H107.895V69.8113H103.298V61.1256Z" fill="#B0EBFF"/>
<path d="M108.74 55.6079H113.338V72.4263H108.74V55.6079Z" fill="#D5F4FF"/>
<path d="M108.74 56.8585H113.338V58.1273H108.74V56.8585Z" fill="#B0EBFF"/>
<path d="M108.74 61.1256H113.338V69.8113H108.74V61.1256Z" fill="#B0EBFF"/>
<path d="M114.173 55.6079H118.772V72.4263H114.173V55.6079Z" fill="#D5F4FF"/>
<path d="M114.173 56.8585H118.772V58.1273H114.173V56.8585Z" fill="#B0EBFF"/>
<path d="M114.173 61.1256H118.772V69.8113H114.173V61.1256Z" fill="#B0EBFF"/>
<path d="M92.4232 36.5471H97.0208V53.3655H92.4232V36.5471Z" fill="#D5F4FF"/>
<path d="M92.4232 37.7976H97.0208V39.0664H92.4232V37.7976Z" fill="#B0EBFF"/>
<path d="M92.4232 42.0658H97.0208V50.7515H92.4232V42.0658Z" fill="#B0EBFF"/>
<path d="M92.4232 55.6079H97.0208V72.4263H92.4232V55.6079Z" fill="#D5F4FF"/>
<path d="M92.4232 56.8585H97.0208V58.1273H92.4232V56.8585Z" fill="#B0EBFF"/>
<path d="M92.4232 61.1255H97.0208V69.8111H92.4232V61.1255Z" fill="#B0EBFF"/>
<path d="M62.3716 36.5471H66.9692V53.3655H62.3716V36.5471Z" fill="#D5F4FF"/>
<path d="M62.3716 37.7976H66.9692V39.0664H62.3716V37.7976Z" fill="#B0EBFF"/>
<path d="M62.3716 42.0658H66.9692V50.7515H62.3716V42.0658Z" fill="#B0EBFF"/>
<path d="M62.3716 55.6079H66.9692V72.4263H62.3716V55.6079Z" fill="#D5F4FF"/>
<path d="M62.3716 56.8585H66.9692V58.1273H62.3716V56.8585Z" fill="#B0EBFF"/>
<path d="M62.3716 61.1255H66.9692V69.8111H62.3716V61.1255Z" fill="#B0EBFF"/>
<path d="M50.8977 78C50.5641 78.0024 50.2351 78.0781 49.9338 78.2216C49.6326 78.3651 49.3666 78.5729 49.1545 78.8305C48.9424 79.0881 48.7894 79.389 48.7063 79.7122C48.6232 80.0353 48.612 80.3727 48.6736 80.7007H53.1299C53.1915 80.3721 53.1802 80.034 53.0967 79.7102C53.0131 79.3865 52.8594 79.0851 52.6464 78.8275C52.4334 78.5698 52.1664 78.3621 51.8642 78.2191C51.562 78.0761 51.2321 78.0013 50.8977 78Z" fill="#D7E9F5"/>
<path d="M50.8647 78.8174C50.9697 78.8165 51.0739 78.8365 51.1711 78.8763C51.2684 78.9161 51.3567 78.9748 51.431 79.0491C51.5053 79.1234 51.564 79.2117 51.6038 79.309C51.6436 79.4062 51.6636 79.5104 51.6627 79.6154V101.606C51.6746 101.717 51.663 101.83 51.6286 101.937C51.5942 102.043 51.5377 102.141 51.4629 102.225C51.388 102.308 51.2965 102.374 51.1942 102.42C51.0919 102.466 50.9812 102.489 50.8692 102.489C50.7572 102.489 50.6465 102.466 50.5442 102.42C50.442 102.374 50.3504 102.308 50.2756 102.225C50.2008 102.141 50.1443 102.043 50.1099 101.937C50.0754 101.83 50.0638 101.717 50.0758 101.606V79.6109C50.0755 79.507 50.0957 79.404 50.1351 79.3079C50.1746 79.2118 50.2326 79.1244 50.3059 79.0507C50.3792 78.9771 50.4662 78.9185 50.5621 78.8785C50.658 78.8385 50.7608 78.8177 50.8647 78.8174Z" fill="#D7E9F5"/>
<path d="M40.8224 81.2786C40.4645 81.2935 40.2957 81.8224 40.5226 82.0766C40.2045 82.1485 40.0666 82.6273 40.2843 82.8667C39.9651 82.9373 39.8283 83.4173 40.0449 83.6555C39.7257 83.7274 39.5889 84.2062 39.8055 84.4444C39.4863 84.5162 39.3495 84.995 39.5661 85.2344C39.2469 85.3063 39.1101 85.7851 39.3267 86.0233C39.2449 86.0469 39.1712 86.0926 39.1137 86.1553C39.0562 86.2181 39.0171 86.2955 39.0007 86.379C38.9791 86.4528 38.9757 86.5308 38.9908 86.6062C39.0059 86.6817 39.039 86.7524 39.0873 86.8122C38.7693 86.884 38.6313 87.3628 38.8479 87.6022C38.5299 87.674 38.3919 88.1528 38.6085 88.3911C38.2255 88.472 38.1183 89.1572 38.5265 89.278C38.9255 89.3612 39.1546 88.7605 38.9049 88.4903C39.2241 88.4196 39.3609 87.9397 39.1443 87.7014C39.4624 87.6296 39.6003 87.1508 39.3837 86.9114C39.7018 86.8407 39.8397 86.3608 39.6231 86.1225C39.9412 86.0507 40.0791 85.5719 39.8625 85.3336C40.1806 85.2618 40.3185 84.7819 40.1019 84.5436C40.42 84.4729 40.5579 83.993 40.3402 83.7547C40.6594 83.6829 40.7962 83.2041 40.5796 82.9658C40.8988 82.894 41.0356 82.4141 40.819 82.1758C41.2374 82.0926 41.3069 81.2969 40.8224 81.2786ZM42.3432 81.2786C41.8587 81.298 41.9294 82.0926 42.3432 82.1735C42.1289 82.4118 42.2634 82.8917 42.5826 82.9636C42.3683 83.2018 42.5028 83.6806 42.822 83.7524C42.6077 83.9907 42.7422 84.4706 43.0614 84.5413C42.8471 84.7796 42.9816 85.2595 43.3008 85.3313C43.0865 85.5696 43.221 86.0484 43.539 86.1202C43.3259 86.3585 43.4604 86.8384 43.7784 86.9091C43.5653 87.1485 43.6998 87.6273 44.0178 87.6991C43.8047 87.9374 43.9392 88.4162 44.2572 88.488C44.0076 88.7582 44.2367 89.359 44.6357 89.2757C45.0438 89.1538 44.9367 88.4698 44.5536 88.3888C44.7668 88.1506 44.6323 87.6718 44.3142 87.5999C44.5274 87.3605 44.394 86.8817 44.0748 86.8099C44.1232 86.7501 44.1563 86.6794 44.1714 86.604C44.1865 86.5285 44.1831 86.4506 44.1615 86.3767C44.1451 86.2932 44.106 86.2158 44.0485 86.153C43.9909 86.0903 43.9172 86.0446 43.8354 86.021C43.8837 85.9609 43.9168 85.8901 43.9319 85.8145C43.9469 85.7389 43.9436 85.6607 43.9221 85.5867C43.9055 85.5034 43.8663 85.4262 43.8088 85.3637C43.7513 85.3011 43.6777 85.2556 43.596 85.2322C43.8092 84.9928 43.6747 84.514 43.3566 84.4421C43.5698 84.2039 43.4364 83.7251 43.1172 83.6533C43.3304 83.415 43.197 82.9351 42.8778 82.8644C43.0922 82.625 42.9576 82.1462 42.6384 82.0744C42.8664 81.8224 42.6966 81.2935 42.3386 81.2764L42.3432 81.2786ZM40.8258 81.4531C41.1097 81.4827 40.9843 82.0516 40.7221 82.0048C40.4941 81.9227 40.5967 81.4656 40.8258 81.4531ZM42.3398 81.4531C42.5678 81.4667 42.6715 81.9239 42.4435 82.0048C42.1813 82.0504 42.0616 81.4816 42.3398 81.4531ZM40.5864 82.2419C41.1017 82.4232 40.2992 83.2394 40.3676 82.4699C40.3767 82.4143 40.4026 82.3627 40.4416 82.322C40.4807 82.2813 40.5312 82.2534 40.5864 82.2419ZM42.5792 82.2419C42.6344 82.2534 42.6849 82.2813 42.7239 82.322C42.763 82.3627 42.7888 82.4143 42.798 82.4699C42.8664 83.2383 42.0616 82.4209 42.5792 82.2408V82.2419ZM40.3516 83.0308C40.8669 83.2109 40.0643 84.0272 40.1327 83.2588C40.1419 83.2032 40.1677 83.1516 40.2068 83.1109C40.2459 83.0702 40.2964 83.0423 40.3516 83.0308ZM42.8231 83.0308C42.8784 83.0421 42.929 83.07 42.9681 83.1107C43.0072 83.1514 43.033 83.2031 43.042 83.2588C43.1104 84.0238 42.3078 83.2064 42.8231 83.0308ZM40.1122 83.8197C40.6275 83.9998 39.8249 84.8161 39.8933 84.0477C39.9025 83.992 39.9283 83.9405 39.9674 83.8998C40.0065 83.8591 40.057 83.8312 40.1122 83.8197ZM43.0625 83.8197C43.1178 83.8312 43.1682 83.8591 43.2073 83.8998C43.2464 83.9405 43.2722 83.992 43.2814 84.0477C43.3498 84.8126 42.5472 83.9964 43.0625 83.8197ZM39.8705 84.6086C40.3858 84.7898 39.5832 85.6061 39.6516 84.8366C39.6607 84.7812 39.6862 84.7299 39.7248 84.6892C39.7634 84.6485 39.8134 84.6204 39.8682 84.6086H39.8705ZM43.2996 84.6086C43.3549 84.62 43.4054 84.648 43.4444 84.6887C43.4835 84.7293 43.5093 84.7809 43.5185 84.8366C43.5846 85.6061 42.7821 84.7887 43.2974 84.6086H43.2996ZM39.6323 85.3986C40.1464 85.5787 39.3438 86.395 39.4122 85.6266C39.4214 85.5709 39.4473 85.5194 39.4863 85.4787C39.5254 85.438 39.5759 85.4101 39.6311 85.3986H39.6323ZM43.5379 85.3986C43.5934 85.4097 43.6442 85.4375 43.6835 85.4782C43.7229 85.519 43.7488 85.5707 43.7579 85.6266C43.8252 86.3915 43.0238 85.5742 43.5379 85.3986ZM39.3929 86.1875C39.907 86.3676 39.1044 87.1838 39.1728 86.4155C39.182 86.3598 39.2079 86.3082 39.2469 86.2675C39.286 86.2268 39.3365 86.1989 39.3917 86.1875H39.3929ZM43.7773 86.1875C43.8327 86.1987 43.8835 86.2266 43.9228 86.2673C43.9621 86.308 43.9881 86.3597 43.9973 86.4155C44.0646 87.1816 43.2632 86.3642 43.7773 86.1875ZM39.1535 86.9764C39.6676 87.1576 38.865 87.9739 38.9334 87.2044C38.9427 87.1486 38.9687 87.0969 39.008 87.0561C39.0473 87.0154 39.098 86.9876 39.1535 86.9764ZM44.0167 86.9764C44.0721 86.9876 44.1229 87.0154 44.1622 87.0561C44.2015 87.0969 44.2274 87.1486 44.2367 87.2044C44.304 87.9704 43.5026 87.1531 44.0167 86.9764ZM38.9141 87.7664C39.4282 87.9465 38.6256 88.7627 38.694 87.9944C38.7033 87.9389 38.729 87.8875 38.7678 87.8469C38.8067 87.8062 38.8568 87.7782 38.9118 87.7664H38.9141ZM44.2561 87.7664C44.3115 87.7778 44.3621 87.8056 44.4014 87.8463C44.4407 87.887 44.4667 87.9386 44.4761 87.9944C44.5411 88.7627 43.7397 87.9511 44.2538 87.7664H44.2561ZM38.6701 88.5553C39.1842 88.7354 38.3828 89.5516 38.4501 88.7833C38.4595 88.7275 38.4855 88.6759 38.5248 88.6352C38.5641 88.5945 38.6147 88.5667 38.6701 88.5553ZM44.4909 88.5553C44.5463 88.5667 44.597 88.5945 44.6362 88.6352C44.6755 88.6759 44.7015 88.7275 44.711 88.7833C44.7782 89.5493 43.9768 88.732 44.4909 88.5553Z" fill="#322F4A"/>
<path d="M45.8407 89.0101H37C37.0239 94.6075 45.8236 94.6041 45.8407 89.0101Z" fill="#F6BA34"/>
<path d="M43.4125 89.0101C43.1366 91.1545 42.0445 92.486 41.0424 93.2715C43.5926 93.4995 45.8567 91.5022 45.8407 89.0101H43.4125Z" fill="#EA792F"/>
<path d="M60.907 81.2786C61.2649 81.2935 61.4348 81.8224 61.2068 82.0766C61.5248 82.1485 61.6628 82.6273 61.4462 82.8667C61.7642 82.9373 61.9022 83.4173 61.6844 83.6555C62.0036 83.7274 62.1404 84.2062 61.9238 84.4444C62.243 84.5162 62.3798 84.995 62.1632 85.2344C62.4824 85.3063 62.6192 85.7851 62.4026 86.0233C62.4844 86.0469 62.5582 86.0926 62.6157 86.1553C62.6732 86.2181 62.7123 86.2955 62.7287 86.379C62.7503 86.4528 62.7537 86.5308 62.7386 86.6062C62.7235 86.6817 62.6904 86.7524 62.642 86.8122C62.9612 86.884 63.098 87.3628 62.8814 87.6022C63.1995 87.674 63.3374 88.1528 63.1208 88.3911C63.5039 88.472 63.611 89.1572 63.2029 89.278C62.8039 89.3612 62.5748 88.7605 62.8244 88.4903C62.5064 88.4196 62.3684 87.9397 62.585 87.7014C62.267 87.6296 62.129 87.1508 62.3456 86.9114C62.0276 86.8407 61.8896 86.3608 62.1062 86.1225C61.7882 86.0507 61.6502 85.5719 61.8668 85.3336C61.5488 85.2618 61.4108 84.7819 61.6286 84.5436C61.3094 84.4729 61.1726 83.993 61.3892 83.7547C61.07 83.6829 60.9332 83.2041 61.1498 82.9658C60.8306 82.894 60.6938 82.4141 60.9104 82.1758C60.492 82.0926 60.4225 81.2969 60.907 81.2786ZM59.3862 81.2786C59.8707 81.298 59.8 82.0926 59.3862 82.1735C59.6005 82.4118 59.466 82.8917 59.1468 82.9636C59.3611 83.2018 59.2266 83.6806 58.9074 83.7524C59.1217 83.9907 58.9872 84.4706 58.668 84.5413C58.8823 84.7796 58.7478 85.2595 58.4286 85.3313C58.6429 85.5696 58.5084 86.0484 58.1903 86.1202C58.4035 86.3585 58.269 86.8384 57.9509 86.9091C58.1641 87.1485 58.0296 87.6273 57.7115 87.6991C57.9259 87.9374 57.7902 88.4162 57.4721 88.488C57.7218 88.7582 57.4927 89.359 57.0937 89.2757C56.6855 89.1538 56.7927 88.4698 57.1757 88.3888C56.9626 88.1506 57.0971 87.6718 57.4151 87.5999C57.202 87.3605 57.3365 86.8817 57.6545 86.8099C57.6062 86.7501 57.5731 86.6794 57.558 86.604C57.5429 86.5285 57.5463 86.4506 57.5679 86.3767C57.5843 86.2932 57.6234 86.2158 57.6809 86.153C57.7384 86.0903 57.8121 86.0446 57.8939 86.021C57.8457 85.9609 57.8126 85.8901 57.7975 85.8145C57.7824 85.7389 57.7858 85.6607 57.8073 85.5867C57.8239 85.5034 57.8631 85.4262 57.9206 85.3637C57.9781 85.3011 58.0517 85.2556 58.1333 85.2322C57.9202 84.9928 58.0547 84.514 58.3727 84.4421C58.1596 84.2039 58.2941 83.7251 58.6121 83.6533C58.399 83.415 58.5335 82.9351 58.8515 82.8644C58.6384 82.625 58.7717 82.1462 59.0909 82.0744C58.8629 81.8224 59.0328 81.2935 59.3908 81.2764L59.3862 81.2786ZM60.9035 81.4531C60.6208 81.4827 60.7462 82.0516 61.0073 82.0048C61.2353 81.9227 61.1327 81.4656 60.9035 81.4531ZM59.3896 81.4531C59.1616 81.4667 59.0579 81.9239 59.2859 82.0048C59.5481 82.0504 59.6735 81.4816 59.3896 81.4531ZM61.1429 82.2419C60.6277 82.4232 61.4302 83.2394 61.363 82.4699C61.3532 82.4143 61.3271 82.3629 61.2879 82.3222C61.2487 82.2816 61.1982 82.2536 61.1429 82.2419ZM59.1502 82.2419C59.095 82.2534 59.0445 82.2813 59.0054 82.322C58.9664 82.3627 58.9405 82.4143 58.9313 82.4699C58.8629 83.2383 59.6655 82.4209 59.1502 82.2408V82.2419ZM61.3823 83.032C60.8671 83.2121 61.6696 84.0283 61.6012 83.26C61.592 83.2043 61.5662 83.1527 61.5271 83.112C61.4881 83.0713 61.4376 83.0434 61.3823 83.032ZM58.9108 83.032C58.8555 83.0433 58.8049 83.0711 58.7658 83.1119C58.7268 83.1526 58.701 83.2042 58.6919 83.26C58.6235 84.0249 59.4261 83.2075 58.9108 83.032ZM61.6217 83.8208C61.1065 84.001 61.909 84.8172 61.8406 84.0488C61.8314 83.9932 61.8056 83.9416 61.7665 83.9009C61.7275 83.8602 61.677 83.8323 61.6217 83.8208ZM58.6714 83.8208C58.6162 83.8323 58.5657 83.8602 58.5266 83.9009C58.4876 83.9416 58.4617 83.9932 58.4525 84.0488C58.3841 84.8149 59.1867 83.9975 58.6726 83.8208H58.6714ZM61.8634 84.6097C61.3481 84.791 62.1507 85.6072 62.0823 84.8377C62.0732 84.7815 62.0471 84.7295 62.0076 84.6885C61.968 84.6476 61.917 84.6197 61.8611 84.6086L61.8634 84.6097ZM58.4354 84.6097C58.38 84.621 58.3293 84.6488 58.29 84.6895C58.2507 84.7302 58.2247 84.7819 58.2154 84.8377C58.1459 85.6061 58.9473 84.7887 58.4332 84.6086L58.4354 84.6097ZM62.1028 85.3997C61.5875 85.5799 62.3901 86.3961 62.3217 85.6277C62.3125 85.5721 62.2867 85.5205 62.2476 85.4798C62.2085 85.4391 62.1581 85.4112 62.1028 85.3997ZM58.196 85.3997C58.1405 85.4108 58.0897 85.4386 58.0504 85.4794C58.0111 85.5201 57.9851 85.5719 57.976 85.6277C57.9088 86.3927 58.7102 85.5753 58.196 85.3997ZM62.3411 86.1886C61.8269 86.3687 62.6295 87.185 62.5611 86.4166C62.5519 86.361 62.5261 86.3094 62.487 86.2687C62.4479 86.228 62.3975 86.2001 62.3422 86.1886H62.3411ZM57.9566 86.1886C57.9012 86.1999 57.8505 86.2277 57.8112 86.2684C57.7719 86.3091 57.7459 86.3608 57.7366 86.4166C57.6694 87.1827 58.4708 86.3653 57.9566 86.1886ZM62.5816 86.9764C62.0675 87.1576 62.87 87.9739 62.8016 87.2044C62.7924 87.1487 62.7666 87.0971 62.7276 87.0564C62.6885 87.0157 62.638 86.9878 62.5828 86.9764H62.5816ZM57.7184 86.9764C57.663 86.9878 57.6123 87.0156 57.5731 87.0563C57.5338 87.097 57.5078 87.1486 57.4984 87.2044C57.4311 87.9704 58.2325 87.1531 57.7184 86.9764ZM62.821 87.7664C62.3069 87.9465 63.1094 88.7627 63.041 87.9944C63.0316 87.9381 63.005 87.8861 62.9651 87.8453C62.9252 87.8046 62.8737 87.777 62.8176 87.7664H62.821ZM57.479 87.7664C57.4237 87.7781 57.3732 87.806 57.334 87.8467C57.2948 87.8873 57.2687 87.9388 57.259 87.9944C57.1883 88.7627 57.9908 87.9511 57.4756 87.7664H57.479ZM63.065 88.5553C62.5508 88.7354 63.3534 89.5516 63.285 88.7833C63.2757 88.7274 63.2497 88.6758 63.2104 88.635C63.1712 88.5943 63.1204 88.5665 63.065 88.5553ZM57.2441 88.5553C57.1889 88.5669 57.1384 88.5949 57.0992 88.6355C57.06 88.6762 57.0338 88.7276 57.0241 88.7833C56.9569 89.5493 57.7583 88.732 57.2441 88.5553Z" fill="#322F4A"/>
<path d="M55.8887 89.0101H64.7294C64.7055 94.6075 55.9115 94.6041 55.8887 89.0101Z" fill="#F6BA34"/>
<path d="M62.2807 89.0101C62.0037 91.1545 60.9058 92.486 59.9106 93.2715C62.4597 93.4995 64.7248 91.5022 64.7077 89.0101H62.2807Z" fill="#EA792F"/>
<path d="M48.7443 79.563C48.6195 79.9298 48.5936 80.323 48.669 80.703H53.1253C53.2008 80.323 53.1748 79.9298 53.05 79.563H48.7443Z" fill="#C3D2D1"/>
<path d="M40.3687 80.1398C39.3427 80.1238 39.3347 81.7437 40.3687 81.7278H61.3607C62.3867 81.7437 62.3946 80.1238 61.3607 80.1398H40.3687Z" fill="#D7E9F5"/>
<path d="M50.0712 96.7747C50.0792 96.8887 50.0553 101.613 50.0792 101.711H51.6501C51.6741 101.613 51.6501 96.883 51.6581 96.7747H50.0712Z" fill="#C3D2D1"/>
<path d="M45.2114 97.3549H56.4153C58.2393 97.3458 57.7457 99.7489 57.8016 100.905C57.8019 101.087 57.7662 101.267 57.6967 101.436C57.6271 101.604 57.525 101.757 57.3962 101.886C57.2674 102.015 57.1145 102.117 56.9462 102.186C56.7779 102.256 56.5975 102.291 56.4153 102.291H45.2114C45.0293 102.291 44.8489 102.256 44.6806 102.186C44.5122 102.117 44.3593 102.015 44.2305 101.886C44.1017 101.757 43.9996 101.604 43.9301 101.436C43.8605 101.267 43.8249 101.087 43.8252 100.905C43.8856 99.7477 43.3817 97.348 45.2114 97.3549Z" fill="#D7E9F5"/>
<path d="M50.0712 80.7325V82.2362H51.6581V80.7325H50.0712Z" fill="#C3D2D1"/>
<path d="M40.3687 80.1398C39.3427 80.1238 39.3347 81.7437 40.3687 81.7278H61.3607C62.3867 81.7437 62.3946 80.1238 61.3607 80.1398H40.3687Z" fill="#D7E9F5"/>
<path d="M45.5238 97.9967C45.1464 97.9967 45.1453 98.5849 45.5238 98.5792H55.8123V101.087C55.8098 101.127 55.8155 101.167 55.829 101.204C55.8425 101.242 55.8636 101.276 55.8908 101.305C55.9181 101.334 55.9511 101.357 55.9877 101.373C56.0243 101.389 56.0637 101.397 56.1036 101.397C56.1434 101.397 56.1829 101.389 56.2194 101.373C56.256 101.357 56.289 101.334 56.3163 101.305C56.3436 101.276 56.3646 101.242 56.3781 101.204C56.3916 101.167 56.3973 101.127 56.3948 101.087V98.2885C56.3948 98.2113 56.3642 98.1373 56.3098 98.0826C56.2553 98.0279 56.1813 97.997 56.1041 97.9967H45.5238Z" fill="#C3D2D1"/>
<path d="M121.944 96.738H100.48L98.478 102.453H119.942L121.944 96.738Z" fill="#C3D2D1"/>
<path d="M100.48 96.738H121.944L123.946 102.453H102.482L100.48 96.738Z" fill="#D7E9F5"/>
<path d="M103.023 97.9704L103.902 101.023H105.994L105.844 100.5H104.379L103.651 97.9704H103.023ZM106.407 97.9704L106.2 101.023H106.841L106.868 100.408H108.008L108.387 101.023H109.031L107.093 97.9704H106.407ZM108.282 97.9704L110.023 101.023H110.593L110.405 98.6407L111.602 101.023H112.172L112.139 97.9704H111.466L111.669 100.261L110.516 97.9704H109.896L110.081 100.257L108.95 97.9704H108.282ZM112.255 97.9704L113.821 99.8925L114.147 101.023H114.772L114.446 99.8925L114.86 97.9704H114.156L113.963 99.319L112.951 97.9704H112.255ZM115.241 97.9704L116.119 101.023H118.399L118.249 100.5H116.596L116.368 99.7089H117.829L117.679 99.1857H116.218L116.019 98.4948H117.598L117.446 97.9704H115.241ZM118.024 97.9704L118.903 101.023H119.532L119.183 99.8127C120.741 99.726 120.115 100.008 120.729 101.023H121.403L121.37 100.909C120.907 100.54 121.13 99.677 120.422 99.5482C121.096 99.2734 120.643 98.2497 120.087 98.0491C119.817 97.8997 118.341 97.9978 118.024 97.9704ZM118.803 98.4948C119.208 98.5438 120.013 98.3022 120.117 98.8836C120.361 99.5185 119.335 99.2256 119.032 99.2894L118.803 98.4948ZM106.947 98.6909L107.688 99.8845H106.89L106.947 98.6909Z" fill="#22263F"/>
<path d="M93.747 85.2926L67.9556 86.3665L67.3856 102.453H81.7758L81.9651 100.89L83.0264 100.236C83.0264 100.236 83.2214 101.642 83.3342 102.453H95.148C94.8961 94.7432 95.3863 89.8081 93.7436 85.2926H93.747Z" fill="#3D395A"/>
<path d="M93.2921 51.5497C96.3143 54.9754 101.842 68.8389 98.527 72.7343C97.7815 73.3522 93.5794 69.1718 93.5794 69.1718L92.4041 54.1238L93.2921 51.5497Z" fill="#3D395A"/>
<path d="M76.0234 89.4615C76.0234 89.4615 85.7499 92.5156 93.5999 89.0238C94.0274 80.7884 87.282 50.1851 87.282 50.1851L81.0041 48.7134L73.9668 53.1776L76.0234 89.4615Z" fill="#E8F1F6"/>
<path d="M79.3089 51.0515C79.2849 51.259 80.3075 53.8947 81.7622 54.5981C81.7622 54.5981 80.4557 73.4275 80.5332 73.5962C80.6108 73.7649 81.8819 79.9904 81.8819 79.9904L87.3322 84.8628L90.6382 77.6808L83.8256 54.3781C83.8256 54.3781 84.7045 53.9095 85.1081 50.738C83.5235 48.9004 81.0987 49.4236 81.0987 49.4236L79.3089 51.0515Z" fill="#04B6F5"/>
<path d="M85.2164 48.1855C87.3105 61.1941 89.8607 82.4802 93.682 94.7169C93.682 94.7169 94.6852 95.0487 95.8252 94.0785L93.2921 51.5497C93.2921 51.5497 89.7137 48.222 85.2164 48.1855Z" fill="#3D395A"/>
<path d="M85.4797 48.1936C86.3336 50.5317 87.3037 54.0954 89.0034 55.9661C88.601 56.9169 87.7791 67.9794 89.0274 65.8545C88.8359 63.1071 89.1767 58.7033 89.4891 55.656C87.9353 54.011 86.9013 50.4177 86.1067 48.2358C85.9004 48.2141 85.686 48.2004 85.4797 48.1936Z" fill="#22263F"/>
<path d="M92.6754 58.3475C92.8281 58.1287 93.4403 61.5886 93.7014 64.3553C93.8268 65.5512 93.9111 66.6114 93.9533 67.5063C94.0673 70.3494 93.7664 70.3916 93.3981 67.5599C93.2739 66.7129 93.1268 65.5888 92.9957 64.4329C92.6514 61.6866 92.477 58.1549 92.6754 58.3475Z" fill="#22263F"/>
<path d="M97.5489 62.5222C94.4572 63.0056 94.4321 62.6807 90.2711 64.8592C90.2711 64.8592 91.948 68.0136 91.9959 68.0512C92.0096 68.0615 92.3858 68.0296 92.8988 67.9828C93.9111 69.4933 95.8628 68.7158 96.9036 67.5701C98.1314 67.4402 100.887 67.1039 100.336 65.7017C100.906 65.5307 100.988 64.6221 99.7662 64.165C100.222 63.6052 99.1483 63.0079 98.5589 63.0557C98.4928 62.9611 98.0869 62.5268 97.5489 62.5222Z" fill="#FEC3B3"/>
<path d="M83.0948 77.886L77.2808 51.7937L73.1392 48.3737C73.1392 48.3737 69.4912 49.2047 68.0183 50.3424C64.6131 57.0525 66.3722 86.4588 65.711 92.3514C65.711 92.3514 70.8911 96.0291 78.365 95.133L83.0948 77.886Z" fill="#3D395A"/>
<path d="M73.1381 48.3783C73.1381 48.3783 72.9431 48.4239 72.6593 48.4923C73.4573 50.672 74.5494 55.0234 74.6337 57.0001C76.1898 58.4821 80.1776 67.6021 80.6837 69.1172C80.7018 69.1621 80.7307 69.2018 80.7679 69.2328C80.8051 69.2639 80.8493 69.2852 80.8968 69.2949C80.9442 69.3046 80.9933 69.3024 81.0397 69.2885C81.0861 69.2746 81.1283 69.2494 81.1625 69.2152C80.2243 65.7188 77.2204 59.4283 75.1399 56.714C75.1695 54.613 73.9862 50.6891 73.2692 48.4855L73.1381 48.3783Z" fill="#22263F"/>
<path d="M98.5258 72.732C95.3338 75.9947 87.135 74.417 82.5522 72.3091C83.3866 68.4 83.4984 66.4541 83.7275 66.4153C83.9566 66.3765 91.7349 66.9557 93.3502 67.1096C96.6642 67.4652 98.3594 70.1488 98.5258 72.732Z" fill="#3D395A"/>
<path d="M97.908 70.3655C97.3471 69.9425 96.6369 68.6828 95.628 68.2166C94.6453 67.5428 92.8623 67.4311 92.1806 67.0047C92.9934 66.5921 94.8528 66.9546 95.9825 67.6032C97.0382 68.2314 98.0208 69.5412 97.9023 70.3655H97.908Z" fill="#22263F"/>
<path d="M73.716 45.5009C73.2771 46.3217 72.7128 48.9072 72.8861 49.0007C73.0594 49.0941 76.9502 53.8434 76.9502 53.8434L81.1249 50.0814L83.723 49.8602L85.8525 51.6432C85.8525 51.6432 86.4225 48.6678 85.6119 47.2302C82.5943 46.512 73.716 45.5009 73.716 45.5009Z" fill="#E8F1F6"/>
<path d="M68.016 50.347C65.28 52.0844 64.5824 52.1391 64.6496 54.3245C64.7169 56.5099 66.5067 64.6905 67.7801 68.1242C69.0534 71.5579 69.0968 72.2761 70.182 73.1539C71.2673 74.0317 77.274 72.6774 77.73 71.3538C77.909 67.2498 70.8193 52.92 68.0217 50.347H68.016Z" fill="#3D395A"/>
<path d="M73.3261 58.7397C73.9839 59.1171 75.3291 62.1073 75.8649 63.4377C76.5751 65.289 77.6 67.8335 77.4917 69.2084C76.8077 68.1402 76.1112 65.7804 75.3257 64.0065L75.2049 63.7022C74.7055 62.2794 73.3957 59.5309 73.3261 58.7397Z" fill="#22263F"/>
<path d="M82.2239 67.072C77.0471 62.4288 73.3319 62.1563 69.9632 66.2113C69.6155 66.9523 69.9176 67.5519 70.3131 67.479C70.2276 68.3841 70.5411 68.676 71.1795 68.619C71.2263 69.531 71.5626 69.6347 72.3891 69.3588C72.7208 70.5946 81.81 67.0059 82.2239 67.072Z" fill="#FEC3B3"/>
<path d="M96.8432 73.9097C95.0546 75.9834 84.1698 74.2175 82.4268 72.4049C84.7615 73.0752 89.4275 74.0841 92.2479 74.124C93.9499 74.2722 95.7876 74.2916 96.8432 73.9097Z" fill="#22263F"/>
<path d="M72.4085 70.4691C77.1691 66.7504 85.3383 65.004 89.4902 64.1683C89.4902 64.1683 94.1802 64.7566 93.2807 67.8619C88.7412 72.0731 71.224 80.4168 69.4467 71.7585C69.5163 71.25 72.4085 70.4691 72.4085 70.4691Z" fill="#3D395A"/>
<path d="M72.6023 70.5775C76.0633 67.9441 81.924 66.0505 86.5319 65.0063C87.8019 64.7783 88.7321 64.2174 89.9348 64.4055C91.1637 64.727 92.7198 65.2765 93.1872 66.5065C93.4016 67.0913 93.2864 67.504 93.3286 67.5109C93.3708 67.5177 93.5817 67.1449 93.4164 66.4393C93.0288 65.0131 91.3872 64.3325 90.0443 63.9313C88.8404 63.644 87.6788 64.2402 86.3963 64.4534C81.8363 65.5409 75.5252 67.2521 72.6023 70.574V70.5775Z" fill="#22263F"/>
<path d="M92.6982 68.1562C91.4351 70.3951 78.3342 77.8872 72.1884 75.3233C68.9622 73.4458 67.8849 68.9633 66.8498 65.8442C66.2559 63.9062 65.0144 58.6041 65.166 57.9554C65.4613 58.6109 66.6948 63.7193 67.3913 65.6846C68.4378 68.5791 69.5391 72.894 72.4746 74.6758C78.7617 77.0208 90.9585 69.7077 92.6982 68.1562Z" fill="#22263F"/>
<path d="M81.769 54.5947C82.0848 54.4454 83.6386 54.2903 83.821 54.3918C83.9452 54.8056 81.6801 55.0427 81.769 54.5947Z" fill="#0081AF"/>
<path d="M70.7612 82.9385C70.3827 82.9385 70.3827 83.5256 70.7612 83.521C71.1351 83.5666 79.1915 85.9959 77.4313 84.3851C75.4659 84.2791 72.7493 83.3671 70.7612 82.9385Z" fill="#22263F"/>
<path d="M95.164 82.9624C94.6772 83.0593 93.6923 83.1904 93.7538 83.1744C93.3788 83.2109 93.4437 83.8003 93.8177 83.7536C93.7721 83.7615 94.6544 83.651 95.1982 83.5484L95.164 82.9624Z" fill="#22263F"/>
<path d="M79.8983 89.6326C80.1901 89.4753 79.31 93.6089 78.7309 94.888C78.5816 95.2038 78.5029 95.7704 78.1609 95.9482C77.2124 96.1762 76.2662 95.922 75.3109 95.8342C72.9728 95.5413 67.8257 94.2644 66.7609 93.0002C69.0945 93.8586 74.7683 95.409 77.8919 95.3418C77.8839 95.3304 77.8531 95.3657 77.7893 95.4398C77.9147 95.2118 78.0309 94.9085 78.1313 94.6623C78.7013 93.4277 79.8675 89.3955 79.8948 89.6361L79.8983 89.6326Z" fill="#22263F"/>
<path d="M92.2593 88.92C92.29 88.92 92.3037 88.9451 92.3254 88.9725C92.3586 89.0288 92.3876 89.0874 92.412 89.148C92.4793 89.294 92.5602 89.506 92.6526 89.7728C93.1371 91.1829 93.6535 93.2167 94.0126 94.7751C93.9339 94.6782 93.9111 94.6417 93.8986 94.6679C94.3238 94.7751 96.7258 93.5279 95.4353 94.5197C94.9919 94.7352 93.9773 95.5583 93.527 94.9244C93.027 93.2598 92.619 91.5689 92.3049 89.8594C92.2593 89.5812 92.2296 89.3555 92.2194 89.1959C92.2137 89.1322 92.2137 89.0681 92.2194 89.0044C92.2194 88.9702 92.2194 88.9406 92.2513 88.9269L92.2593 88.92Z" fill="#22263F"/>
<path d="M85.7818 98.724C85.9266 99.4365 82.4621 101.3 81.9571 100.859C81.9092 100.711 82.8167 100.321 83.8575 99.7546C84.8983 99.188 85.6815 98.6203 85.7818 98.7286V98.724Z" fill="#22263F"/>
<path d="M73.5473 43.8501V46.1962C75.8467 48.7897 81.1557 50.7437 82.9763 51.4402C84.3511 50.3971 84.3648 47.6965 84.3591 47.5277C84.3591 47.5277 83.9669 46.4128 83.8677 46.3148C81.329 45.6205 76.1328 44.4098 73.5473 43.8501Z" fill="#FEC3B3"/>
<path d="M74.8332 44.1396C74.1071 44.1761 74.009 44.1795 73.5473 44.4235V45.828C76.2491 49.0109 80.6016 50.3561 84.1949 49.1146C84.4662 47.546 84.4229 47.4251 83.8529 46.3091C81.6208 45.7197 77.0722 44.6105 74.8332 44.1396Z" fill="#F37584"/>
<path d="M66.876 36.904C62.3628 32.189 61.2387 24.168 65.166 22.0704C67.2317 7.54904 99.6818 9.00596 94.0331 26.2074C92.8156 29.4405 72.4085 38.8135 72.4085 38.8135L66.876 36.904Z" fill="#642435"/>
<path d="M88.6067 19.9146C87.8805 19.8964 87.2763 20.0674 86.8887 20.4618C82.7688 24.9557 78.5838 16.9609 73.9475 22.1718C74.4342 23.8613 73.9338 27.3486 70.8478 28.6527C71.411 31.3796 71.1693 32.7659 70.027 34.021C62.7914 31.008 61.7244 45.1656 71.46 43.1718C79.5813 53.6598 98.6387 46.2703 93.804 33.4898C94.26 31.9553 95.4969 25.7469 92.672 21.3339C91.272 20.4675 89.7798 19.95 88.6067 19.9146Z" fill="#FEC3B3"/>
<path d="M70.8056 40.5189C69.6884 41.0535 65.5742 40.8233 65.7452 37.4865C68.61 32.9265 71.3311 37.7247 70.8056 40.5189Z" fill="#FAB3AA"/>
<path d="M93.0675 30.4231L88.1234 28.4999C89.7661 25.8711 93.5315 27.5743 93.0675 30.4243V30.4231Z" fill="#642435"/>
<path d="M75.0179 30.1655L80.6883 28.3643C79.1937 25.878 74.6634 27.0396 75.0179 30.1655Z" fill="#642435"/>
<path d="M88.536 33.7907C88.4369 35.479 91.0019 35.6398 91.1159 33.9537C91.2128 32.2619 88.65 32.1046 88.536 33.7907Z" fill="#642435"/>
<path d="M76.68 34.1555C76.5809 35.8438 79.1459 36.0057 79.2599 34.3185C79.3739 32.6313 76.794 32.4694 76.68 34.1555Z" fill="#642435"/>
<path d="M70.8569 40.666C70.9709 40.666 71.151 39.6514 70.8569 38.1147C70.5309 35.2989 67.2819 34.2261 65.9378 36.8778C65.573 37.7054 65.6893 37.7613 66.208 37.0511C67.5999 35.0891 69.8925 35.9111 70.3211 38.2355C70.6973 39.64 70.7418 40.6694 70.8535 40.666H70.8569Z" fill="#F37584"/>
<path d="M70.4511 37.7008C70.3884 37.1502 69.2735 36.9336 68.6362 37.2745C67.991 37.5481 67.218 38.3974 67.3902 38.9161C68.5028 38.1055 68.8061 37.4056 70.4511 37.7008Z" fill="#F37584"/>
<path d="M85.6119 35.9772C86.6756 36.0137 86.7394 36.3739 86.8169 36.627C86.8169 37.2346 84.041 37.368 83.9589 36.8424C83.9418 36.4799 84.7148 36.0239 85.6119 35.9772Z" fill="#F37584"/>
<path d="M80.8479 40.0013C81.6288 40.1963 82.795 40.8278 83.9339 40.8552C85.3497 41.0125 87.7586 40.601 87.4679 40.9065C87.3892 41.1698 85.8662 42.0134 83.8518 41.8299C82.7061 41.7729 80.6598 40.8278 80.8536 40.0059L80.8479 40.0013Z" fill="#F37584"/>
</svg>
