<svg width="19" height="19" viewBox="0 0 19 19" fill="none" xmlns="http://www.w3.org/2000/svg">
<path d="M8.00008 0.75C12.0041 0.75 15.2501 3.99594 15.2501 8C15.2501 9.73187 14.6428 11.3219 13.6296 12.5688L18.5304 17.4697C18.8233 17.7626 18.8233 18.2374 18.5304 18.5303C18.2641 18.7966 17.8475 18.8208 17.5539 18.6029L17.4697 18.5303L12.5689 13.6295C11.322 14.6427 9.73195 15.25 8.00008 15.25C3.99601 15.25 0.750076 12.0041 0.750076 8C0.750076 3.99594 3.99601 0.75 8.00008 0.75ZM8.00008 2.25C4.82444 2.25 2.25008 4.82436 2.25008 8C2.25008 11.1756 4.82444 13.75 8.00008 13.75C11.1757 13.75 13.7501 11.1756 13.7501 8C13.7501 4.82436 11.1757 2.25 8.00008 2.25Z" fill="#222222" fill-opacity="0.6"/>
</svg>
