<svg width="219" height="165" viewBox="0 0 219 165" fill="none" xmlns="http://www.w3.org/2000/svg">
<path d="M73.3093 86.9722C85.9953 78.5785 94.3573 64.2074 94.3573 47.865C94.3573 21.9843 73.3729 1 47.4922 1C21.6115 1 0.627182 21.9843 0.627182 47.865C0.627182 73.7457 21.6115 94.7301 47.4922 94.7301C52.3886 94.7301 57.126 93.967 61.5454 92.5681L83.102 94.7301C75.4078 91.1691 73.6591 87.8307 73.3093 86.9722Z" fill="#E2E2E2" stroke="black" stroke-miterlimit="10" stroke-linecap="round" stroke-linejoin="round"/>
<path d="M42.6277 60.9644C42.6277 60.9644 23.6146 63.9531 21.4526 66.5603C19.3223 69.1674 17.8916 79.9775 16.4608 85.8913C16.4608 85.8913 93.1809 133.36 83.1338 79.4688C83.1338 79.4688 81.0354 65.1295 71.3699 61.3778C71.3699 61.3778 56.6172 60.5511 54.2327 60.6147C51.8481 60.6783 42.6277 60.9644 42.6277 60.9644Z" fill="#CDBFDE" stroke="black" stroke-miterlimit="10" stroke-linecap="round" stroke-linejoin="round"/>
<path d="M43.7723 55.4322C43.7723 55.4322 45.1712 59.8516 43.7723 62.0136C43.7723 62.0136 49.5589 71.8381 53.6604 62.0136C53.6604 62.0136 51.6255 59.947 52.5157 54.7963L43.7723 55.4322Z" fill="white" stroke="black" stroke-miterlimit="10"/>
<path d="M42.6277 60.9642L35.4739 62.3314L45.8389 77.243L49.1137 66.4329L42.6277 60.9642Z" fill="#CDBFDE" stroke="black" stroke-miterlimit="10" stroke-linecap="round" stroke-linejoin="round"/>
<path d="M54.2327 60.6147L49.1137 66.4331L53.3106 77.2432L61.8633 60.9645L54.2327 60.6147Z" fill="#CDBFDE" stroke="black" stroke-miterlimit="10" stroke-linecap="round" stroke-linejoin="round"/>
<path d="M48.9548 66.9736V96.924" stroke="black" stroke-miterlimit="10"/>
<path d="M49.1773 68.2454C49.4056 68.2454 49.5907 68.0603 49.5907 67.832C49.5907 67.6038 49.4056 67.4187 49.1773 67.4187C48.9491 67.4187 48.764 67.6038 48.764 67.832C48.764 68.0603 48.9491 68.2454 49.1773 68.2454Z" fill="white" stroke="black" stroke-width="0.5" stroke-miterlimit="10"/>
<path d="M49.7178 74.2546C49.9461 74.2546 50.1312 74.0696 50.1312 73.8413C50.1312 73.613 49.9461 73.428 49.7178 73.428C49.4896 73.428 49.3045 73.613 49.3045 73.8413C49.3045 74.0696 49.4896 74.2546 49.7178 74.2546Z" fill="white" stroke="black" stroke-width="0.5" stroke-miterlimit="10"/>
<path d="M49.7178 80.2954C49.9461 80.2954 50.1312 80.1103 50.1312 79.8821C50.1312 79.6538 49.9461 79.4688 49.7178 79.4688C49.4896 79.4688 49.3045 79.6538 49.3045 79.8821C49.3045 80.1103 49.4896 80.2954 49.7178 80.2954Z" fill="white" stroke="black" stroke-width="0.5" stroke-miterlimit="10"/>
<path d="M49.7178 86.3047C49.9461 86.3047 50.1312 86.1196 50.1312 85.8914C50.1312 85.6631 49.9461 85.478 49.7178 85.478C49.4896 85.478 49.3045 85.6631 49.3045 85.8914C49.3045 86.1196 49.4896 86.3047 49.7178 86.3047Z" fill="white" stroke="black" stroke-width="0.5" stroke-miterlimit="10"/>
<path d="M49.7178 92.3137C49.9461 92.3137 50.1312 92.1287 50.1312 91.9004C50.1312 91.6721 49.9461 91.4871 49.7178 91.4871C49.4896 91.4871 49.3045 91.6721 49.3045 91.9004C49.3045 92.1287 49.4896 92.3137 49.7178 92.3137Z" fill="white" stroke="black" stroke-width="0.5" stroke-miterlimit="10"/>
<path d="M31.2134 29.138C30.8637 29.5831 30.514 58.3253 47.4286 58.6432C64.3433 58.993 62.372 23.4468 61.6726 23.5739C60.9731 23.7011 31.2134 29.138 31.2134 29.138Z" fill="white" stroke="black" stroke-miterlimit="10"/>
<path d="M51.5619 39.6304C51.5619 39.6304 53.4378 37.6591 56.5218 39.6304" stroke="black" stroke-miterlimit="10" stroke-linecap="round" stroke-linejoin="round"/>
<path d="M40.2749 39.6304C40.2749 39.6304 42.1507 37.6591 45.2348 39.6304" stroke="black" stroke-miterlimit="10" stroke-linecap="round" stroke-linejoin="round"/>
<path d="M42.7548 46.0209C43.387 46.0209 43.8995 45.2095 43.8995 44.2087C43.8995 43.2078 43.387 42.3964 42.7548 42.3964C42.1227 42.3964 41.6102 43.2078 41.6102 44.2087C41.6102 45.2095 42.1227 46.0209 42.7548 46.0209Z" fill="black" stroke="black" stroke-miterlimit="10" stroke-linecap="round" stroke-linejoin="round"/>
<path d="M54.0419 46.0209C54.674 46.0209 55.1865 45.2095 55.1865 44.2087C55.1865 43.2078 54.674 42.3964 54.0419 42.3964C53.4097 42.3964 52.8973 43.2078 52.8973 44.2087C52.8973 45.2095 53.4097 46.0209 54.0419 46.0209Z" fill="black" stroke="black" stroke-miterlimit="10" stroke-linecap="round" stroke-linejoin="round"/>
<path d="M47.0153 36.5465C46.8563 36.3875 46.7609 36.165 46.6974 35.9424C46.8563 35.6562 47.2697 35.5927 47.4922 35.8152C47.683 36.0378 47.7466 36.4193 48.0009 36.5147C48.1599 36.5783 48.3507 36.4829 48.5096 36.4193C48.6686 36.3557 48.8912 36.3875 48.9866 36.5465C49.0184 36.8644 49.1137 37.1506 49.2727 37.4367C49.3999 37.2778 49.5271 37.1188 49.686 37.0552C49.845 36.9916 50.0994 37.087 50.1312 37.2778C50.1312 37.3731 50.1312 37.4685 50.1312 37.5639C50.1947 37.8183 50.5445 37.8183 50.767 37.6911C50.9896 37.5639 51.3076 37.5003 51.4347 37.7229C51.4983 37.8183 51.4665 37.9772 51.4983 38.1044C51.5301 38.327 51.7209 38.5177 51.9117 38.5495C52.1024 38.5813 52.325 38.4224 52.3886 38.2316C52.4204 38.168 52.4204 38.0726 52.484 38.0408C52.6111 37.9137 52.8337 38.0408 52.8973 38.1998C52.9609 38.3588 53.0563 38.5813 53.2152 38.6449C53.406 38.7085 53.5968 38.5177 53.6286 38.327C53.6603 38.1044 53.565 37.8819 53.406 37.7547C53.3106 37.6593 53.1834 37.5639 53.1834 37.4049C53.1834 37.1824 53.5014 37.0234 53.4378 36.8008C53.3424 36.6101 52.9927 36.7055 52.9291 36.5147C53.1198 36.2921 53.406 36.1968 53.6921 36.2285C53.4696 36.0696 53.565 35.5927 53.8193 35.5609C54.0101 35.5291 54.2009 35.7198 54.3916 35.688C54.6142 35.6562 54.7732 35.3383 54.646 35.1157C54.5824 34.9886 54.4552 34.925 54.3598 34.8296C54.2644 34.7342 54.2326 34.5434 54.2962 34.4481C54.4234 34.3209 54.646 34.5116 54.8049 34.4163C54.9957 34.3209 54.9003 34.0029 54.9321 33.7804C54.9639 33.526 55.2183 33.367 55.4726 33.367C55.6952 33.367 55.9178 33.4942 56.1085 33.5896C56.2993 33.685 56.5218 33.8758 56.4901 34.0983C56.4583 34.2573 56.3311 34.3527 56.2675 34.4798C56.1721 34.607 56.1721 34.8296 56.2993 34.8932C56.3629 34.925 56.4583 34.8932 56.5218 34.925C56.9034 35.0204 56.4901 35.8788 56.8398 36.0696C57.2213 36.2285 57.4121 35.1793 57.7618 35.4019C57.6664 35.5927 57.9526 35.7834 58.1116 35.688C58.3023 35.5927 58.3977 35.3701 58.5885 35.2747C58.8111 35.1793 59.0654 35.2747 59.1608 35.4973C59.2562 35.7198 59.1608 36.0378 58.97 36.165C58.8428 36.2285 58.6839 36.2603 58.6521 36.4193C58.6521 36.5147 58.7157 36.6101 58.7475 36.7055C58.8746 36.9598 58.7793 37.2778 58.7475 37.5639C58.7157 37.8501 58.8111 38.2316 59.0654 38.2634C59.2562 38.2952 59.4469 38.1044 59.6377 38.0726C59.9875 38.009 60.2736 38.3906 60.4644 38.7085C60.4962 38.7721 60.5598 38.8675 60.5915 38.9311C60.6869 39.1218 60.8141 39.3444 60.8141 39.567C60.6233 39.6623 60.4008 39.567 60.1782 39.567C59.9557 39.567 59.7013 39.6941 59.7013 39.9485C59.7331 40.1711 59.9556 40.2664 60.1464 40.2982C60.3372 40.2982 59.129 40.7116 59.288 40.8705C59.4151 40.9977 59.4469 41.1885 59.5423 41.3793C59.6059 41.5382 59.7967 41.6972 59.9557 41.6336C60.051 41.57 60.0828 41.4746 60.1782 41.3793C60.2736 41.3157 60.369 41.2839 60.4962 41.2839C60.7187 41.2839 60.9731 41.5064 60.8777 41.6972C60.8459 41.7608 60.7505 41.8244 60.7187 41.888C60.528 42.2059 61.1956 42.5238 61.0367 42.8736C60.8459 42.8418 60.6551 42.8418 60.4962 42.969C60.3372 43.0962 61.8315 43.0008 61.9905 43.0008C61.7997 43.2551 61.3228 42.969 61.1638 43.2551C61.0685 43.4459 61.2274 43.7002 61.4182 43.732C61.609 43.7956 61.8315 43.7638 61.9905 43.8592C62.2131 43.9864 62.3402 44.2407 62.531 44.4315C62.7218 44.5905 63.1033 44.5905 63.1351 44.3043C63.1351 44.1772 63.0397 44.0182 63.0715 43.891C63.1351 43.6049 63.4848 43.732 63.7074 43.891C63.8982 44.05 64.2797 44.1772 64.3433 43.891C64.4069 43.6367 64.0253 43.3187 64.2161 43.1597C64.4069 42.969 64.7248 43.5413 64.9156 43.3505C64.9792 42.969 64.7884 42.5556 64.4705 42.4285C64.5658 42.3331 64.6612 42.2695 64.7566 42.1741C64.4705 42.0469 64.3115 41.6972 64.3433 41.3793C64.5976 41.5382 64.8202 41.6654 65.0746 41.8244C65.2335 41.729 65.1382 41.4746 65.011 41.3157C64.8838 41.1567 64.7566 40.9659 64.8838 40.8069C65.011 40.648 65.2017 40.7752 65.3607 40.9023C65.4879 41.0295 65.7423 41.1249 65.8376 40.9341C65.7105 40.7434 65.6787 40.489 65.774 40.2664C65.8058 40.1711 65.9012 40.0757 65.8694 39.9485C65.8376 39.7259 65.5197 39.7577 65.3607 39.5988C65.1382 39.3762 65.3607 38.9629 65.6469 38.9311C65.933 38.8993 66.1874 39.1218 66.4099 39.3126C66.5053 39.0583 66.3781 38.7085 66.1874 38.5495C66.3463 38.4542 66.5371 38.3906 66.6961 38.2952C66.7915 38.009 66.1556 37.9454 66.2192 37.6275C66.251 37.4367 66.5371 37.4685 66.6961 37.5639C66.8551 37.6911 67.0776 37.8183 67.2048 37.6593C67.3002 37.5639 67.2684 37.3731 67.2684 37.246C67.2684 37.1188 67.3638 36.8962 67.4909 36.928C67.6817 36.9598 67.8407 36.6737 67.7453 36.4829C67.6817 36.2603 67.4909 36.1332 67.332 36.0378C67.2048 35.9424 67.0458 35.847 66.8868 35.847C66.7915 35.847 66.7279 35.847 66.6325 35.8152C66.5053 35.7834 66.4417 35.6245 66.4417 35.4655C66.4417 35.3065 66.4735 35.1793 66.5371 35.0204C66.6961 35.1475 66.8551 35.2429 67.014 35.2429C67.2048 35.2111 67.332 34.9568 67.2048 34.7978C67.1412 34.7024 67.014 34.7024 66.9504 34.6388C66.8233 34.5752 66.7597 34.3845 66.7915 34.2573C66.8233 34.1301 66.9504 34.0029 67.0776 33.9711C66.9822 33.9075 66.8551 33.8758 66.7915 33.7804C66.7279 33.685 66.6961 33.526 66.7597 33.4306C66.7915 33.367 66.8551 33.367 66.8868 33.3035C66.9186 33.2081 66.8233 33.1127 66.7279 33.0809C66.6325 33.0491 66.5053 33.0491 66.4735 32.9537C66.3781 32.7947 66.5371 32.604 66.6325 32.5086C66.7597 32.3814 66.8869 32.1906 66.7915 32.0635C66.7597 32.0317 66.6961 31.9999 66.6643 31.9363C66.6325 31.8409 66.7597 31.7455 66.8551 31.7455C66.9504 31.7773 67.014 31.8727 67.1094 31.9363C67.2048 31.9999 67.332 32.0317 67.3956 31.9363C67.4592 31.8727 67.4274 31.7773 67.4274 31.6819C67.3638 31.3958 67.332 31.1096 67.2684 30.8235C67.2684 30.7917 67.2684 30.7281 67.2366 30.6963C67.1094 30.442 66.6961 30.7917 66.5053 30.6009C66.4417 30.5373 66.4417 30.4102 66.3781 30.3148C66.2192 29.9968 65.7422 30.3466 65.4561 30.1558C65.2653 30.0286 65.2335 29.7107 65.3289 29.5199C65.4243 29.2974 65.6469 29.202 65.8694 29.1384C65.7422 29.1066 65.774 28.9158 65.8376 28.7886C65.9012 28.6933 66.0284 28.5343 65.9648 28.4071C65.933 28.3435 65.9012 28.3117 65.8694 28.2799C65.774 28.1528 65.774 27.9938 65.8376 27.8666C65.933 27.7394 66.092 27.7076 66.1874 27.7712C66.251 27.644 66.251 27.4533 66.1874 27.2943C65.9966 27.3579 65.7422 27.1671 65.7422 26.9446C65.6151 27.1353 65.2653 27.0399 65.2335 26.8174C65.2017 26.6902 65.2335 26.563 65.17 26.4676C65.0746 26.3405 64.9156 26.4358 64.7566 26.4676C64.6294 26.4994 64.4069 26.3723 64.5023 26.2451C64.4705 26.3723 64.2797 26.3405 64.2161 26.2133C64.1525 26.0861 64.1525 25.9589 64.0889 25.8318C64.0571 25.7682 64.0253 25.7364 64.0253 25.6728C63.9936 25.482 64.2479 25.3866 64.4069 25.323C64.5659 25.2595 64.852 24.9097 64.7566 24.719C64.7248 24.7825 64.6612 24.8143 64.6294 24.8779C64.6612 24.7507 64.6294 24.6236 64.5659 24.5282C64.4705 24.4328 64.3433 24.4328 64.2797 24.5282C64.2161 24.6236 64.2161 24.7825 64.1207 24.7825C63.9935 24.7825 63.9936 24.5282 63.8664 24.4646C63.6756 24.6872 63.3895 24.7825 63.1351 24.719C63.0715 24.4964 63.2941 24.1467 63.1033 24.0195C62.9761 23.9241 62.7854 24.0513 62.6582 23.9241C62.531 23.7969 62.69 23.5743 62.8172 23.479C62.7536 23.4154 62.69 23.32 62.69 23.2246C62.7854 23.1928 62.8807 23.161 62.9443 23.0656C63.0079 22.9703 63.0079 22.8431 62.9125 22.7795C62.7536 22.7159 62.5628 22.9703 62.4674 22.8113C62.4356 22.7795 62.4356 22.7159 62.4356 22.6523C62.4356 22.4297 62.2131 22.3344 62.0541 22.239C62.1495 22.2708 62.2767 22.1436 62.3084 22.0482C62.3402 21.921 62.3402 21.7939 62.4038 21.6667C62.4674 21.5077 62.6582 21.4759 62.7536 21.3487C62.8489 21.2216 62.8489 20.9354 62.69 20.9672C62.5946 21.1262 62.4038 21.1898 62.2449 21.1262C62.1495 21.0944 62.0541 20.999 61.9269 21.0308C61.7679 21.0944 61.7997 21.4759 61.609 21.4759C61.45 21.4759 61.4182 21.2534 61.291 21.1898C61.1956 21.2851 61.1638 21.4441 61.1003 21.5713C61.0367 21.6985 60.9095 21.8257 60.7823 21.7621C60.5915 21.6985 60.6233 21.4123 60.7187 21.1898C60.4644 21.2216 60.2418 20.8718 60.3372 20.6175C60.4644 20.6493 60.5915 20.6175 60.6869 20.5221C60.5915 20.5221 60.528 20.3631 60.5598 20.2677C60.5915 20.1405 60.6869 20.077 60.7187 19.9498C60.7505 19.8226 60.7187 19.6636 60.6233 19.6636C60.5279 19.6636 60.4644 19.7272 60.4008 19.8226C60.3372 19.8862 60.21 19.9498 60.1782 19.8544C60.2736 19.6954 60.3372 19.5047 60.369 19.3139C60.2418 19.3139 60.1782 19.4729 60.1146 19.5682C60.0192 19.6636 59.8285 19.6636 59.8603 19.5047C59.9557 19.5047 59.9874 19.3457 59.9239 19.2503C59.8603 19.1549 59.7649 19.1231 59.7013 19.0913C59.6377 19.0277 59.7013 18.9006 59.7649 18.837C59.8285 18.7734 59.9557 18.7416 59.9557 18.6462C59.9557 18.5508 59.8921 18.4872 59.9239 18.3918C59.9557 18.2329 60.21 18.1693 60.1464 18.0421C60.1146 18.0103 59.9556 18.2011 59.9874 18.1693C60.1464 18.1693 60.2736 17.9467 60.21 17.7878C60.1464 17.6288 59.9239 17.5652 59.8285 17.6924C59.7967 17.4698 59.6695 17.279 59.5105 17.1837C59.3833 17.438 59.1926 17.597 58.9382 17.6924C59.0972 17.5016 58.97 17.1837 58.8429 16.9929C58.6839 16.7703 58.5249 16.5796 58.3023 16.5478C58.0798 16.516 57.7936 16.7703 57.889 17.0247C57.6665 16.8975 57.4121 16.8657 57.1895 16.8975C57.0942 16.6432 56.9034 16.4206 56.6808 16.2934C56.8716 16.2616 57.0624 16.198 57.1895 16.0391C57.3167 15.8801 57.3167 15.5939 57.1577 15.4986C56.9352 15.3714 56.6808 15.6575 56.4583 15.5939C56.4265 15.3714 56.3947 15.1806 56.3629 14.9581C56.1085 15.0216 55.8542 15.0534 55.5998 14.9898C55.5044 14.7673 55.3455 14.5765 55.1547 14.4811C55.3455 14.4493 55.568 14.5129 55.7588 14.4811C55.9496 14.4811 56.1721 14.354 56.2357 14.1314C56.2993 13.877 55.9496 13.6227 55.7588 13.7817C55.6316 13.4955 56.2039 13.2411 56.0767 12.955C55.9813 12.7642 55.727 12.8596 55.568 12.9868C55.409 13.114 55.2183 13.3047 55.0593 13.1776C54.9321 13.0822 54.9321 12.8596 54.8685 12.7006C54.805 12.5417 54.487 12.5417 54.5506 12.7006C54.5824 12.8914 54.646 13.0504 54.6778 13.2411C54.5188 13.1458 54.3598 13.0504 54.1691 13.0822C54.0101 13.1458 53.9147 13.4637 54.0737 13.5273C54.1055 13.5591 54.1691 13.5591 54.2009 13.5591C54.4234 13.6545 54.2644 14.0678 54.0419 14.0678C53.8193 14.0678 53.6286 13.877 53.5014 13.6863C53.565 13.9724 53.3106 14.2904 53.0245 14.2586C52.7701 14.2268 52.5793 13.8452 52.7065 13.5909C52.4522 13.7181 52.166 13.7181 51.9117 13.6545C51.8799 13.5591 51.8799 13.6227 51.9752 13.5909C51.8799 13.4955 51.8481 13.3365 51.8481 13.2094C52.1342 13.2412 52.4204 13.2729 52.6747 13.1458C52.9291 13.0504 53.1516 12.7324 53.1198 12.4463C52.7701 12.2555 52.5157 11.7786 52.5157 11.3335C52.2296 11.4925 51.9752 11.7468 51.7845 12.0648C51.7845 11.8104 51.7527 11.556 51.7527 11.3017C51.5301 11.4925 51.2758 11.6514 50.9896 11.715C51.1168 11.4289 51.1168 11.0791 50.9896 10.8248C50.6717 10.793 50.4491 11.3653 50.163 11.2699C49.9722 11.2063 49.9404 10.9202 50.004 10.6976C50.0676 10.475 50.163 10.2525 50.0994 10.0617C49.845 10.0299 49.6225 10.5068 49.4317 10.3479C49.2727 10.2207 49.3999 9.93452 49.5589 9.77555C49.7178 9.61658 49.845 9.29863 49.6542 9.20325C49.3045 9.55299 48.764 9.64837 48.3507 9.42581C48.5414 9.29863 48.3507 8.9171 48.0963 8.94889C47.8738 8.98069 47.7148 9.20325 47.5558 9.39402C47.3968 9.58479 47.1425 9.74376 46.9517 9.61658C46.7609 9.4894 46.7609 9.20325 46.6338 8.98069C46.5384 8.75813 46.1569 8.69454 46.1569 8.94889C46.1569 9.20325 46.1251 9.42581 46.1251 9.68017C45.8707 9.61658 45.5846 9.5212 45.3302 9.45761C45.1394 9.74376 45.3938 10.1253 45.5846 10.4114C45.7435 10.6976 45.7117 11.2699 45.3938 11.2381C45.1712 11.2063 45.1076 10.8884 45.1076 10.634C44.9805 10.793 44.8215 10.9202 44.6307 10.9519C44.44 10.9837 44.2174 10.7612 44.281 10.5704C44.122 10.7612 43.8041 10.793 43.6133 10.6022C43.7723 10.3796 43.9312 10.0935 43.8677 9.83914C43.8041 9.58478 43.4543 9.36222 43.3271 9.58478C43.2 9.77555 43.3271 10.0299 43.2 10.2207C43.041 10.4432 42.7231 10.2843 42.5323 10.1253C42.6913 10.5386 42.2779 11.0791 41.8646 10.9519C41.7374 10.9202 41.6102 10.8248 41.4831 10.8248C41.1015 10.8566 41.0061 11.6514 40.6246 11.6196C40.3703 11.5878 40.2749 11.2063 40.0205 11.1745C39.9569 11.3971 39.8616 11.6196 39.7026 11.7468C39.5436 11.874 39.2575 11.8422 39.1621 11.6514C39.0985 11.4607 39.1939 11.1745 39.0667 11.0155C38.9713 10.8884 38.7487 10.9519 38.6534 11.0791C38.558 11.2381 38.558 11.4289 38.558 11.6196C38.3036 11.4925 38.0175 11.4289 37.7313 11.4925C37.5723 11.715 38.0493 11.8422 38.1764 12.0965C38.2718 12.2873 38.1129 12.5099 37.9221 12.5417C37.7313 12.5735 37.5723 12.4781 37.4134 12.3509C37.4452 12.5099 37.4134 12.7006 37.2862 12.8278C37.1908 12.955 36.9683 12.955 36.8729 12.8278C36.7457 12.6371 36.9047 12.2873 36.7457 12.0965C36.5867 11.9376 36.3324 12.1601 36.237 12.3509C36.1416 12.5417 35.9508 12.796 35.7601 12.7324C35.5693 12.6688 35.5693 12.3827 35.6011 12.1601C35.3467 12.0648 35.0606 12.2873 35.0288 12.5735C35.3149 12.6371 35.5375 12.955 35.5057 13.2729C35.2196 13.2094 34.9652 13.1458 34.6791 13.0822C34.8062 13.4319 35.0288 13.7181 35.3149 13.9088C35.1242 14.0996 34.8698 14.2268 34.6155 14.2586C34.6791 14.4493 34.7744 14.6401 34.7426 14.8309C34.6791 15.3078 34.1703 15.1806 33.916 15.3396C34.1385 15.4668 34.2657 15.9755 34.4247 16.0391C34.2339 15.9437 34.075 16.2616 34.0432 16.4842C34.0114 16.7067 33.8206 17.0247 33.6616 16.8657C33.6616 16.6432 33.5662 16.4524 33.4073 16.3252C33.3119 16.5478 33.0257 16.675 32.8032 16.5478C32.9304 16.3252 32.835 16.0073 32.6442 15.9119C32.4534 15.8165 32.1673 15.9437 32.1037 16.198C32.0719 16.3252 32.1037 16.4842 32.0083 16.5796C31.8811 16.7703 31.5632 16.6749 31.3724 16.8021C31.1817 16.9611 31.2452 17.279 31.4042 17.438C31.5632 17.597 31.7858 17.6606 32.0083 17.6924C31.8175 17.7242 31.6586 17.7878 31.4678 17.8196C31.4996 17.9149 31.5632 18.0421 31.595 18.1375C32.0401 18.1057 32.5806 18.1057 32.8668 18.4872C32.9304 18.5508 32.9621 18.6144 32.9621 18.7098C32.9621 18.9959 32.6442 19.0913 32.4216 19.0277C32.1991 18.9642 31.9129 18.8688 31.7222 18.9959C31.4996 19.1549 31.4996 19.5365 31.4996 19.8544C31.4996 20.1723 31.4042 20.5857 31.1181 20.5857C31.1499 20.2041 30.7683 19.8544 30.4504 19.9498C30.514 20.2995 30.4504 20.6493 30.2914 20.9354C30.1324 20.5221 29.5919 20.4585 29.3376 20.7764C29.0832 21.0944 29.2422 21.6985 29.6237 21.8257C29.2422 21.921 28.7971 22.1436 28.8289 22.5887C29.5283 22.5251 30.2278 22.9703 30.514 23.6697C30.1642 23.7333 30.5458 24.5918 30.196 24.7507C29.9735 24.8461 29.8145 24.4964 29.8145 24.242C29.7827 23.9877 29.6555 23.6379 29.433 23.7015C29.3058 23.7651 29.2422 23.9559 29.115 24.0513C28.9243 24.1784 28.6699 23.9559 28.4791 23.8287C28.2884 23.7015 27.9068 23.7651 27.9704 24.0195C28.2248 23.8923 28.4791 24.3056 28.3837 24.5918C28.2566 24.8779 27.9386 24.9733 27.6525 24.9415C27.8432 25.1323 28.034 25.323 28.0658 25.5774C28.0976 25.8318 27.9386 26.1815 27.6843 26.1179C27.3663 26.0543 27.3663 25.5138 27.112 25.323C26.8576 25.1005 26.4443 25.4184 26.4443 25.7682C26.4443 26.1179 26.7304 26.4359 27.0484 26.5312C26.953 26.9764 26.2853 26.7856 25.9992 27.1035C25.9038 27.1989 25.8402 27.3579 25.8084 27.5169C25.6494 28.0256 25.4904 28.5343 25.3315 29.0112C25.6812 29.1702 25.9356 29.5517 25.9356 29.9968C25.554 29.965 24.9499 30.0922 25.0453 30.5373C25.1089 30.9825 25.872 31.1414 25.7448 31.5866C25.4269 31.6501 25.0135 31.9045 25.1407 32.2224C25.1725 32.3496 25.2997 32.445 25.3951 32.5404C25.554 32.7629 25.554 33.1445 25.3315 33.3352C25.2679 33.3988 25.1725 33.4624 25.1407 33.5896C25.0453 33.9393 25.713 34.0029 25.7448 34.3845C25.7766 34.6388 25.4587 34.766 25.2361 34.7978C25.0135 34.8296 24.6956 34.9886 24.7592 35.2429C24.9182 35.4019 24.9817 35.6244 24.9817 35.847C24.632 35.9742 24.1551 36.3239 24.3459 36.6737C24.473 36.8962 24.8228 36.928 24.9182 37.1824C24.9499 37.3096 24.9182 37.4367 24.9182 37.5639C24.9182 37.9772 25.2679 38.3588 25.6494 38.2952C25.2997 38.486 25.3633 39.2172 25.7448 39.3126C25.6812 39.3126 25.6812 39.1536 25.7448 39.1536C25.8084 39.1218 25.9038 39.1854 25.9356 39.249C25.7766 39.6941 26.1263 40.2664 26.5397 40.2346C26.1899 40.4254 25.872 40.648 25.5222 40.8387C25.5858 41.1567 25.7766 41.411 26.031 41.5382C25.8402 41.6018 25.6812 41.6972 25.4904 41.7608C25.4269 41.9833 25.6176 42.2059 25.7766 42.3331C25.9992 42.5239 26.2535 42.7146 26.5079 42.7782C26.794 42.8418 27.112 42.7782 27.2709 42.5238C27.3663 42.3331 27.4299 42.0787 27.6207 42.0469C27.8114 42.0151 27.9068 42.2695 28.0976 42.3649C28.352 42.4921 28.7017 42.2377 28.8607 42.4921C28.956 42.651 28.8289 42.9054 28.6699 42.9372C28.5109 43.0008 28.3202 42.9054 28.1612 42.8418C28.0658 43.0326 28.0976 43.2869 28.2566 43.4141C28.0658 43.5731 27.8432 43.732 27.6525 43.891C27.8432 44.1772 28.034 44.4951 28.2248 44.7813C28.034 44.7813 27.8432 44.9402 27.8114 45.131C28.2248 45.1946 28.6699 45.29 28.9243 45.6397C29.0196 45.7669 29.0832 45.9576 29.1786 46.053C29.4012 46.3074 29.8781 46.1802 29.9735 45.8305C30.0053 45.7033 30.0053 45.5761 30.1006 45.4807C30.355 45.1946 30.8001 45.8305 31.1181 45.6397C31.3088 45.5125 31.2452 45.1628 31.3724 44.9402C31.5314 44.6859 32.1037 43.8274 32.2945 44.05C32.4852 44.2725 32.0719 43.8592 32.2945 44.05C32.517 44.2408 32.8986 44.2407 32.9939 43.9546C33.0257 43.8274 32.9939 43.6367 33.0893 43.5095C33.3119 43.1597 33.916 43.891 34.1385 43.5413C34.075 43.3187 34.3611 44.6223 34.5519 44.4951C34.838 44.3043 35.3149 44.9084 35.5057 44.5905C35.6011 44.4315 35.5057 44.2408 35.5375 44.05C35.6647 43.5095 36.5549 44.1136 36.8729 43.6684C36.7139 43.3187 36.7139 42.8418 36.9047 42.4921C37.0318 42.5874 37.1908 42.6828 37.318 42.7782C37.477 42.3967 37.6677 42.0151 37.8267 41.6336C37.8585 41.57 37.8903 41.5064 37.9539 41.4746C38.0175 41.4428 38.1129 41.5064 38.1764 41.57C38.4308 41.7608 38.7805 41.7608 39.0349 41.57C38.8441 41.9833 39.3846 42.3967 39.7662 42.2695C40.1477 42.1423 40.4339 41.7608 40.8154 41.5382C40.7518 41.729 40.8154 41.9833 40.9744 42.0469C41.1333 42.1105 41.3559 42.0469 41.4513 41.888C41.5785 41.6336 41.5785 41.1885 41.801 41.2521C41.96 41.2839 42.0554 41.5064 42.1825 41.4428C42.2779 41.3792 42.2779 41.2521 42.3097 41.1249C42.4051 40.8387 42.7548 40.8705 43.0092 40.9341C43.2636 40.9977 43.6133 40.9341 43.6451 40.648C43.6451 40.3936 43.3589 40.2346 43.2953 39.9803C43.2318 39.7259 43.5815 39.5034 43.7723 39.6623C43.7723 39.5034 43.8041 39.3444 43.8041 39.1854C43.8994 39.1218 43.9948 39.09 44.0902 39.0265C44.1856 39.249 44.44 39.408 44.6625 39.3762C44.6943 38.9629 44.8851 38.3906 45.2666 38.5178C45.362 38.5495 45.4574 38.6449 45.5528 38.6449C45.7435 38.6767 45.9025 38.4542 45.9025 38.2316C45.9025 38.009 45.7753 37.8501 45.6799 37.6593C45.9025 37.7547 46.1251 37.8183 46.3476 37.7547C46.5702 37.6911 46.7609 37.4049 46.6656 37.1824C46.6338 37.087 46.5384 36.9916 46.5384 36.8962C46.5384 36.7373 46.7292 36.6419 46.8563 36.7055C46.9835 36.7691 47.0789 36.928 47.1425 37.0552C47.1743 36.9916 47.0789 36.6419 47.0153 36.5465Z" fill="#3A3A3A" stroke="black" stroke-miterlimit="10" stroke-linecap="round" stroke-linejoin="round"/>
<path d="M45.6799 50.1543C45.6799 50.1543 48.2553 51.1081 53.1834 50.1543C53.1834 50.1543 50.8624 53.4927 49.4317 53.4927C49.4317 53.4927 47.7148 53.4927 45.6799 50.1543Z" fill="#EEDBEB" stroke="black" stroke-miterlimit="10" stroke-linecap="round" stroke-linejoin="round"/>
<path d="M33.5345 43.5092C33.4073 43.2867 33.2801 43.0959 33.0893 42.9369C32.8668 42.7144 32.517 42.5554 32.2627 42.7144C32.0719 42.8733 32.0401 43.1595 32.0719 43.4138C32.1355 43.9544 32.2627 44.4949 32.517 44.9718C32.7396 45.4169 33.0257 45.8302 33.4709 46.0528C33.5027 46.0846 33.5662 46.0846 33.6298 46.0846C33.6934 46.0846 33.757 46.021 33.757 45.9574" fill="white"/>
<path d="M33.5345 43.5092C33.4073 43.2867 33.2801 43.0959 33.0893 42.9369C32.8668 42.7144 32.517 42.5554 32.2627 42.7144C32.0719 42.8733 32.0401 43.1595 32.0719 43.4138C32.1355 43.9544 32.2627 44.4949 32.517 44.9718C32.7396 45.4169 33.0257 45.8302 33.4709 46.0528C33.5027 46.0846 33.5662 46.0846 33.6298 46.0846C33.6934 46.0846 33.757 46.021 33.757 45.9574" stroke="black" stroke-miterlimit="10" stroke-linecap="round" stroke-linejoin="round"/>
<path d="M60.1146 43.5092C60.2418 43.2867 60.4008 43.0959 60.5915 42.9369C60.8459 42.7144 61.2274 42.5554 61.4818 42.7144C61.7043 42.8733 61.7044 43.1595 61.7044 43.4138C61.6408 43.9544 61.4818 44.4949 61.2274 44.9718C61.0049 45.4169 60.6869 45.8302 60.21 46.0528C60.1464 46.0846 60.1146 46.0846 60.051 46.0846C59.9874 46.0846 59.9239 46.021 59.9239 45.9574" fill="white"/>
<path d="M60.1146 43.5092C60.2418 43.2867 60.4008 43.0959 60.5915 42.9369C60.8459 42.7144 61.2274 42.5554 61.4818 42.7144C61.7043 42.8733 61.7044 43.1595 61.7044 43.4138C61.6408 43.9544 61.4818 44.4949 61.2274 44.9718C61.0049 45.4169 60.6869 45.8302 60.21 46.0528C60.1464 46.0846 60.1146 46.0846 60.051 46.0846C59.9874 46.0846 59.9239 46.021 59.9239 45.9574" stroke="black" stroke-miterlimit="10" stroke-linecap="round" stroke-linejoin="round"/>
<path d="M46.4748 52.2211C34.0749 53.3021 32.9939 44.4314 32.9939 44.4314C32.9939 44.4314 32.4852 44.7176 32.1037 44.3361" stroke="#565656" stroke-width="2" stroke-miterlimit="10" stroke-linecap="round" stroke-linejoin="round"/>
<path d="M46.5251 53.0186C47.5769 52.9566 48.4086 52.5511 48.3828 52.1129C48.3569 51.6746 47.4834 51.3696 46.4316 51.4316C45.3798 51.4936 44.5481 51.8991 44.5739 52.3373C44.5997 52.7756 45.4733 53.0806 46.5251 53.0186Z" fill="black" stroke="black" stroke-miterlimit="10"/>
<path d="M169.047 102.7H110.991C109.274 102.7 107.875 104.099 107.875 105.816V164H172.131V105.816C172.131 104.099 170.764 102.7 169.047 102.7Z" fill="#D3D1E9" stroke="black" stroke-miterlimit="10" stroke-linecap="round" stroke-linejoin="round"/>
<path d="M168.888 108.391C168.888 108.391 169.842 110.554 169.365 111.73Z" fill="#D3D1E9"/>
<path d="M168.888 108.391C168.888 108.391 169.842 110.554 169.365 111.73" stroke="black" stroke-miterlimit="10" stroke-linecap="round" stroke-linejoin="round"/>
<path d="M161.321 113.447C161.321 113.447 165.232 131.538 164.692 134.749C164.151 137.961 161.194 153.54 160.145 155.13C159.096 156.719 155.312 155.924 154.772 155.13C154.231 154.335 157.442 140.377 157.442 137.961C157.442 135.544 158.937 123.748 154.708 116.754L161.321 113.447Z" fill="white" stroke="black" stroke-miterlimit="10"/>
<path d="M130.322 105.657C130.322 105.657 113.725 77.7101 128.732 64.0385C143.739 50.3668 157.76 85.4043 154.708 94.3704C151.624 103.305 148.413 106.897 143.962 109.314C139.479 111.698 130.799 105.467 130.322 105.657Z" fill="#262626" stroke="black" stroke-miterlimit="10" stroke-linecap="round" stroke-linejoin="round"/>
<path d="M133.056 100.698C133.056 100.698 117.159 101.969 114.774 111.126C112.39 120.283 113.375 125.815 119.448 132.969C125.521 140.123 123.136 158.373 123.136 158.373C123.136 158.373 152.61 159.994 151.815 158.373C151.02 156.751 151.02 141.299 153.436 135.671C155.821 130.044 155.853 117.962 155.853 117.962C155.853 117.962 163.642 113.574 162.275 109.823C160.94 106.071 144.947 100.92 144.947 100.92L133.056 100.698Z" fill="#5C58A6" stroke="black" stroke-miterlimit="10" stroke-linecap="round" stroke-linejoin="round"/>
<path d="M138.811 99.8389C138.811 99.8389 138.843 100.92 138.62 101.142" stroke="#181818" stroke-miterlimit="10" stroke-linecap="round" stroke-linejoin="round"/>
<path d="M136.013 93.0032C136.013 93.0032 135.218 98.6308 133.056 100.697C133.056 100.697 137.984 106.325 143.962 101.047C143.962 101.047 142.181 102.923 139.765 91.7632L136.013 93.0032Z" fill="white" stroke="black" stroke-miterlimit="10"/>
<path d="M124.09 82.2248C124.09 82.2248 124.408 95.038 134.105 98.7897C135.504 99.3302 137.094 99.1394 138.334 98.281C142.276 95.5149 150.829 88.0432 148.667 77.0741C146.569 66.4865 129.59 70.429 123.327 75.1982C121.197 76.7879 124.09 82.2248 124.09 82.2248Z" fill="white" stroke="black" stroke-miterlimit="10"/>
<path d="M115.378 95.9918C115.792 101.206 116.777 106.325 118.081 111.031C118.558 112.779 119.13 114.56 120.148 116.086C121.419 117.962 122.087 115.164 122.405 114.337C122.468 114.146 122.564 113.924 122.755 113.829C123.073 113.638 123.454 113.829 123.74 114.051C124.344 114.56 124.726 115.323 125.235 115.8C125.966 115.132 126.093 114.051 126.602 113.352C126.411 113.67 127.428 114.592 127.619 114.719C128.637 113.511 129.082 111.571 129.241 109.981C129.845 110.363 130.354 110.903 130.735 111.508C130.29 110.744 130.64 108.328 130.512 107.342C130.29 105.848 129.94 104.354 129.527 102.891C128.7 99.9343 127.587 97.041 126.729 94.0524C125.107 88.4247 123.804 81.3664 125.616 75.6434C127.047 76.2157 128.7 77.4875 130.131 78.3459C131.975 79.4587 133.883 80.4443 135.886 81.1756C139.129 82.3838 142.658 82.9561 146.092 82.4474C146.155 82.4474 146.251 82.4792 146.251 82.5746C147.427 88.9971 149.176 95.4831 148.794 102.033C148.413 108.328 147.109 111.19 147.777 117.517C148.54 115.927 151.052 118.025 151.815 116.436C152.419 116.976 152.832 117.676 153.055 118.439C153.468 117.421 153.913 116.372 154.327 115.355C154.931 116.658 155.503 117.962 156.107 119.297C155.821 118.693 157.315 115.704 157.538 114.973C158.015 113.383 158.428 111.794 158.841 110.172C159.604 106.961 160.209 103.686 160.622 100.411C161.48 93.7026 161.544 86.8986 160.876 80.1582C159.922 70.747 156.807 59.1103 147.3 54.9134C137.285 50.494 127.11 57.1072 121.674 65.4691C115.951 74.1172 114.52 85.2771 115.378 95.9918Z" fill="#3A3A3A" stroke="black" stroke-miterlimit="10" stroke-linecap="round" stroke-linejoin="round"/>
<path d="M140.083 75.2301C140.083 75.2301 145.329 79.427 148.89 79.268" stroke="#181818" stroke-miterlimit="10" stroke-linecap="round" stroke-linejoin="round"/>
<path d="M127.46 81.9387C127.46 81.9387 129.018 80.9212 130.322 82.352" stroke="#181818" stroke-miterlimit="10" stroke-linecap="round" stroke-linejoin="round"/>
<path d="M136.585 83.6874C136.585 83.6874 138.143 82.67 139.447 84.1008" stroke="#181818" stroke-miterlimit="10" stroke-linecap="round" stroke-linejoin="round"/>
<path d="M129.209 86.8667C129.595 86.8667 129.908 86.1977 129.908 85.3724C129.908 84.5471 129.595 83.8781 129.209 83.8781C128.823 83.8781 128.509 84.5471 128.509 85.3724C128.509 86.1977 128.823 86.8667 129.209 86.8667Z" fill="black" stroke="black" stroke-miterlimit="10"/>
<path d="M137.475 88.1703C137.862 88.1703 138.175 87.5013 138.175 86.676C138.175 85.8507 137.862 85.1816 137.475 85.1816C137.089 85.1816 136.776 85.8507 136.776 86.676C136.776 87.5013 137.089 88.1703 137.475 88.1703Z" fill="black" stroke="black" stroke-miterlimit="10"/>
<path d="M132.516 86.6761C132.516 86.6761 132.388 89.4423 132.007 90.7776C131.625 92.113 133.883 90.7776 133.883 90.7776" stroke="#181818" stroke-miterlimit="10" stroke-linecap="round" stroke-linejoin="round"/>
<path d="M133.438 95.0697C133.894 95.0697 134.264 94.6996 134.264 94.243C134.264 93.7865 133.894 93.4164 133.438 93.4164C132.981 93.4164 132.611 93.7865 132.611 94.243C132.611 94.6996 132.981 95.0697 133.438 95.0697Z" fill="#EEDBEB" stroke="black" stroke-miterlimit="10" stroke-linecap="round" stroke-linejoin="round"/>
<path d="M109.496 148.866C107.843 143.493 107.461 132.047 116.841 108.996C116.841 108.996 121.228 100.443 121.133 88.9973C121.07 81.2712 123.899 86.1993 124.281 89.2834C124.313 89.6649 125.266 88.107 125.33 88.4568C125.457 89.5378 124.599 92.3357 124.599 92.3357C124.599 92.3357 123.295 100.825 122.341 106.516C121.96 108.742 121.896 111.031 122.119 113.288C122.882 120.696 123.677 139.264 114.87 150.202C113.216 152.3 110.323 151.537 109.496 148.866Z" fill="white" stroke="black" stroke-miterlimit="10"/>
<path d="M112.93 146.99C112.93 146.99 112.326 148.675 111.722 149.152" stroke="#181818" stroke-miterlimit="10" stroke-linecap="round" stroke-linejoin="round"/>
<path d="M218.106 164H32.2994V157.864C32.2994 155.829 33.9527 154.176 35.9876 154.176H214.45C216.485 154.176 218.138 155.829 218.138 157.864V164H218.106Z" fill="#B7B7B7" stroke="black" stroke-miterlimit="10"/>
<path d="M213.305 156.91C213.305 156.91 215.213 158.563 214.386 160.121Z" fill="#B7B7B7"/>
<path d="M213.305 156.91C213.305 156.91 215.213 158.563 214.386 160.121" stroke="black" stroke-miterlimit="10"/>
<path d="M193.529 135.957H183.959V137.579H193.529V135.957Z" fill="white" stroke="black" stroke-miterlimit="10" stroke-linecap="round" stroke-linejoin="round"/>
<path d="M195.023 137.579H182.433V139.868H195.023V137.579Z" fill="white" stroke="black" stroke-miterlimit="10" stroke-linecap="round" stroke-linejoin="round"/>
<path d="M193.02 154.176H185.263L182.973 139.9H194.515L193.02 154.176Z" fill="#DDDBEE" stroke="black" stroke-miterlimit="10" stroke-linecap="round" stroke-linejoin="round"/>
<path d="M193.529 151.473L184.213 151.537L183.482 145.273H194.197L193.529 151.473Z" fill="white" stroke="black" stroke-miterlimit="10" stroke-linecap="round" stroke-linejoin="round"/>
<path d="M192.512 147.308C192.512 147.308 192.385 149.374 192.226 150.106Z" fill="#DDDBEE"/>
<path d="M192.512 147.308C192.512 147.308 192.385 149.374 192.226 150.106" stroke="black" stroke-miterlimit="10" stroke-linecap="round" stroke-linejoin="round"/>
<path d="M187.743 134.113C186.598 132.651 186.566 130.393 187.647 128.899C188.092 128.295 188.665 127.818 189.078 127.214C190 125.815 189.841 123.78 188.728 122.54" stroke="#DDDBEE" stroke-width="2" stroke-miterlimit="10" stroke-linecap="round" stroke-linejoin="round"/>
<path d="M191.749 132.333C190.858 131.411 190.827 129.789 191.717 128.867C192.13 128.454 192.671 128.168 193.02 127.659C193.497 126.96 193.402 126.006 193.275 125.147" stroke="#DDDBEE" stroke-width="2" stroke-miterlimit="10" stroke-linecap="round" stroke-linejoin="round"/>
<path d="M169.016 152.491H114.901L113.948 118.725C113.948 117.58 114.901 116.626 116.046 116.626H167.839C169.016 116.626 169.969 117.58 169.969 118.757L169.016 152.491Z" fill="#E2E2E2" stroke="black" stroke-miterlimit="10"/>
<path d="M141.958 137.293C142.538 137.293 143.008 136.41 143.008 135.321C143.008 134.233 142.538 133.35 141.958 133.35C141.379 133.35 140.909 134.233 140.909 135.321C140.909 136.41 141.379 137.293 141.958 137.293Z" fill="white" stroke="black" stroke-miterlimit="10" stroke-linecap="round" stroke-linejoin="round"/>
<path d="M143.485 136.307C143.485 136.307 143.357 137.929 142.149 138.151Z" fill="#E2E2E2"/>
<path d="M143.485 136.307C143.485 136.307 143.357 137.929 142.149 138.151" stroke="black" stroke-miterlimit="10" stroke-linecap="round" stroke-linejoin="round"/>
<path d="M168.952 152.427H114.901V154.208H168.952V152.427Z" fill="white" stroke="black" stroke-miterlimit="10"/>
<path d="M80.1898 133.76L79.2864 133.576L76.6374 146.567L77.5408 146.751L80.1898 133.76Z" fill="#EEEEF7" stroke="black" stroke-width="0.5" stroke-miterlimit="10" stroke-linecap="round" stroke-linejoin="round"/>
<path d="M76.7469 133.7L75.8339 133.828L77.6768 146.958L78.5899 146.83L76.7469 133.7Z" fill="#EEEEF7" stroke="black" stroke-width="0.5" stroke-miterlimit="10" stroke-linecap="round" stroke-linejoin="round"/>
<path d="M76.3347 135.64C77.0371 135.64 77.6065 134.828 77.6065 133.827C77.6065 132.826 77.0371 132.015 76.3347 132.015C75.6324 132.015 75.063 132.826 75.063 133.827C75.063 134.828 75.6324 135.64 76.3347 135.64Z" fill="#EEEEF7" stroke="black" stroke-width="0.5" stroke-miterlimit="10" stroke-linecap="round" stroke-linejoin="round"/>
<path d="M76.3347 135.067C76.8088 135.067 77.1932 134.512 77.1932 133.827C77.1932 133.142 76.8088 132.587 76.3347 132.587C75.8606 132.587 75.4763 133.142 75.4763 133.827C75.4763 134.512 75.8606 135.067 76.3347 135.067Z" fill="#EEEEF7" stroke="black" stroke-width="0.5" stroke-miterlimit="10" stroke-linecap="round" stroke-linejoin="round"/>
<path d="M79.6732 135.64C80.3755 135.64 80.9449 134.828 80.9449 133.827C80.9449 132.826 80.3755 132.015 79.6732 132.015C78.9708 132.015 78.4014 132.826 78.4014 133.827C78.4014 134.828 78.9708 135.64 79.6732 135.64Z" fill="#EEEEF7" stroke="black" stroke-width="0.5" stroke-miterlimit="10" stroke-linecap="round" stroke-linejoin="round"/>
<path d="M79.6732 135.067C80.1473 135.067 80.5316 134.512 80.5316 133.827C80.5316 133.142 80.1473 132.587 79.6732 132.587C79.199 132.587 78.8147 133.142 78.8147 133.827C78.8147 134.512 79.199 135.067 79.6732 135.067Z" fill="#EEEEF7" stroke="black" stroke-width="0.5" stroke-miterlimit="10" stroke-linecap="round" stroke-linejoin="round"/>
<path d="M84.1244 133.827H83.1387V150.36H84.1244V133.827Z" fill="#EEEEF7" stroke="black" stroke-width="0.5" stroke-miterlimit="10" stroke-linecap="round" stroke-linejoin="round"/>
<path d="M82.4668 132.611L81.4855 132.703L83.0201 149.165L84.0015 149.073L82.4668 132.611Z" fill="#EEEEF7" stroke="black" stroke-width="0.5" stroke-miterlimit="10" stroke-linecap="round" stroke-linejoin="round"/>
<path d="M83.1388 151.855C82.9798 151.409 84.9192 133.223 84.9192 133.223L88.4802 133.636L86.35 151.823H83.1388V151.855Z" fill="#EEEEF7" stroke="black" stroke-width="0.5" stroke-miterlimit="10" stroke-linecap="round" stroke-linejoin="round"/>
<path d="M86.6043 154.017H77.8927C77.0342 154.017 76.3347 153.413 76.2711 152.618L75.4127 139.169C75.3491 138.31 76.0804 137.611 77.0342 137.611H87.3674C88.2894 137.611 89.0207 138.31 88.9889 139.169L88.2259 152.618C88.1941 153.381 87.4628 154.017 86.6043 154.017Z" fill="#6D6D6D" stroke="black" stroke-miterlimit="10"/>
<path d="M86.6679 149.216C86.6679 149.216 86.6043 151.886 86.2546 152.268Z" fill="#6D6D6D"/>
<path d="M86.6679 149.216C86.6679 149.216 86.6043 151.886 86.2546 152.268" stroke="black" stroke-miterlimit="10"/>
<path d="M47.0838 133.064C46.7023 132.651 46.4797 132.142 46.2572 131.633C46.0982 131.252 45.9392 130.902 45.7802 130.521C45.6531 130.234 45.5259 129.948 45.3033 129.726C45.0808 129.503 44.7628 129.376 44.4767 129.44C44.1269 129.535 43.9362 129.948 43.8408 130.298C43.809 130.457 43.7772 130.648 43.7772 130.807C43.809 131.093 43.9362 131.347 44.0633 131.602C44.5403 132.46 45.1126 133.255 45.812 133.954C46.0346 134.177 46.289 134.4 46.5751 134.559C46.9884 134.813 47.4336 135.004 47.9105 135.131C48.1012 135.194 48.292 135.226 48.451 135.131C48.5464 135.067 48.6418 135.004 48.7053 134.876C48.9915 134.463 48.9915 133.923 48.7371 133.477C48.6735 133.382 48.5782 133.319 48.451 133.35C48.451 133.446 48.451 133.382 48.4828 133.477C47.9741 133.732 47.4018 133.414 47.0838 133.064Z" fill="#CCCCCB" stroke="black" stroke-miterlimit="10" stroke-linecap="round" stroke-linejoin="round"/>
<path d="M51.694 137.166C50.5494 136.053 50.0089 134.4 49.9135 132.81C49.8181 131.22 50.1043 129.599 50.3904 128.041C50.5812 127.055 50.7402 126.069 50.5176 125.084C50.4858 124.925 50.4222 124.734 50.2951 124.607C50.0407 124.384 49.5956 124.48 49.373 124.734C49.1505 124.988 49.0551 125.338 48.9915 125.688C48.3874 128.581 48.1648 131.57 48.3556 134.527C48.4192 135.512 48.5464 136.562 49.0869 137.388C49.6592 138.279 50.5812 138.851 51.5668 139.232C51.9802 139.391 52.3935 139.519 52.8386 139.487C53.4745 139.423 54.4919 138.533 53.6971 137.961C53.5063 137.833 53.093 137.961 52.8704 137.929C52.4253 137.77 52.012 137.452 51.694 137.166Z" fill="#CCCCCB" stroke="black" stroke-miterlimit="10" stroke-linecap="round" stroke-linejoin="round"/>
<path d="M53.2519 134.431C53.2201 131.602 53.1884 128.772 53.1566 125.942C53.1248 124.162 53.1248 122.254 53.7924 120.76C54.0468 120.219 54.4919 119.71 54.8735 119.965C55.0642 120.092 55.1914 120.346 55.2868 120.632C55.7637 121.841 55.8909 123.271 56.0181 124.67C56.4314 129.503 56.8447 134.399 56.5268 139.232C56.4632 140.25 56.336 141.299 55.8909 142.062C53.5381 146.068 53.2519 135.894 53.2519 134.431Z" fill="#CCCCCB" stroke="black" stroke-miterlimit="10" stroke-linecap="round" stroke-linejoin="round"/>
<path d="M59.4837 129.821C59.3565 127.913 59.1975 126.006 59.0067 124.098C58.9432 123.367 58.8478 122.636 59.1021 121.936C59.2293 121.618 59.4837 121.3 59.8016 121.364C60.1196 121.427 60.2785 121.809 60.3421 122.159C61.0734 125.656 61.6775 129.217 61.4231 132.778C61.3913 133.287 61.3277 133.827 61.1052 134.304C60.8826 134.781 60.5329 135.194 60.1513 135.576C59.6744 136.021 59.1339 136.403 58.5934 136.72C57.7668 137.166 56.336 137.579 55.7955 136.466C55.3822 135.544 56.3996 135.226 57.0673 134.94C59.3247 133.954 59.6426 132.11 59.4837 129.821Z" fill="#CCCCCB" stroke="black" stroke-miterlimit="10" stroke-linecap="round" stroke-linejoin="round"/>
<path d="M53.6335 122.349C53.6335 122.477 53.7289 122.604 53.8242 122.667" stroke="black" stroke-miterlimit="10" stroke-linecap="round" stroke-linejoin="round"/>
<path d="M54.8735 121.427C54.7781 121.555 54.7145 121.745 54.7463 121.904" stroke="black" stroke-miterlimit="10" stroke-linecap="round" stroke-linejoin="round"/>
<path d="M55.1596 123.399C55.1278 123.558 55.096 123.748 55.0642 123.907" stroke="black" stroke-miterlimit="10" stroke-linecap="round" stroke-linejoin="round"/>
<path d="M54.3012 125.115C54.3645 125.115 54.4278 125.115 54.491 125.115" stroke="black" stroke-miterlimit="10" stroke-linecap="round" stroke-linejoin="round"/>
<path d="M54.174 127.532C54.2685 127.563 54.3315 127.595 54.426 127.626" stroke="black" stroke-miterlimit="10" stroke-linecap="round" stroke-linejoin="round"/>
<path d="M55.6683 126.578C55.6365 126.769 55.6047 126.928 55.5729 127.119" stroke="black" stroke-miterlimit="10" stroke-linecap="round" stroke-linejoin="round"/>
<path d="M54.6191 129.789C54.6508 129.853 54.7141 129.884 54.7457 129.948C54.7141 129.884 54.6508 129.853 54.6191 129.789Z" stroke="black" stroke-miterlimit="10" stroke-linecap="round" stroke-linejoin="round"/>
<path d="M54.174 132.015C54.2685 132.078 54.3315 132.141 54.426 132.204" stroke="black" stroke-miterlimit="10" stroke-linecap="round" stroke-linejoin="round"/>
<path d="M55.7952 131.506C55.7319 131.538 55.7002 131.633 55.7319 131.696" stroke="black" stroke-miterlimit="10" stroke-linecap="round" stroke-linejoin="round"/>
<path d="M54.6184 134.272C54.5554 134.335 54.5239 134.461 54.5554 134.524" stroke="black" stroke-miterlimit="10" stroke-linecap="round" stroke-linejoin="round"/>
<path d="M54.4283 136.975C54.5555 136.975 54.6827 136.975 54.8099 137.007C54.6827 136.975 54.5555 136.975 54.4283 136.975Z" stroke="black" stroke-miterlimit="10" stroke-linecap="round" stroke-linejoin="round"/>
<path d="M55.8591 137.547C55.8273 137.833 55.7637 138.119 55.7319 138.406" stroke="black" stroke-miterlimit="10" stroke-linecap="round" stroke-linejoin="round"/>
<path d="M56.654 136.307C56.6857 136.339 56.7493 136.403 56.781 136.435" stroke="black" stroke-miterlimit="10" stroke-linecap="round" stroke-linejoin="round"/>
<path d="M58.9431 134.4C58.9749 134.4 59.0385 134.4 59.0702 134.4" stroke="black" stroke-miterlimit="10" stroke-linecap="round" stroke-linejoin="round"/>
<path d="M60.4057 130.902C60.5647 130.87 60.7236 130.807 60.8508 130.775" stroke="black" stroke-miterlimit="10" stroke-linecap="round" stroke-linejoin="round"/>
<path d="M59.738 127.691C59.738 127.468 59.6744 127.246 59.6426 127.023" stroke="black" stroke-miterlimit="10" stroke-linecap="round" stroke-linejoin="round"/>
<path d="M59.579 124.766C59.4837 124.639 59.5155 124.448 59.6108 124.353" stroke="black" stroke-miterlimit="10" stroke-linecap="round" stroke-linejoin="round"/>
<path d="M60.5329 124.479C60.6279 124.384 60.6913 124.289 60.7863 124.193C60.7229 124.289 60.6279 124.384 60.5329 124.479Z" stroke="black" stroke-miterlimit="10" stroke-linecap="round" stroke-linejoin="round"/>
<path d="M49.0224 126.641C48.9591 126.578 48.8958 126.514 48.8325 126.451" stroke="black" stroke-miterlimit="10" stroke-linecap="round" stroke-linejoin="round"/>
<path d="M50.1361 126.896C50.1043 126.705 50.3268 126.515 50.5176 126.515" stroke="black" stroke-miterlimit="10" stroke-linecap="round" stroke-linejoin="round"/>
<path d="M49.0869 129.249C49.0869 129.44 49.0869 129.63 49.0869 129.853" stroke="black" stroke-miterlimit="10" stroke-linecap="round" stroke-linejoin="round"/>
<path d="M49.1505 132.428C49.2458 132.555 49.3094 132.683 49.4048 132.842" stroke="black" stroke-miterlimit="10" stroke-linecap="round" stroke-linejoin="round"/>
<path d="M50.0725 135.384C50.167 135.353 50.2615 135.29 50.3245 135.258" stroke="black" stroke-miterlimit="10" stroke-linecap="round" stroke-linejoin="round"/>
<path d="M49.2123 136.307C49.1178 136.339 49.0233 136.465 49.0233 136.56" stroke="black" stroke-miterlimit="10" stroke-linecap="round" stroke-linejoin="round"/>
<path d="M50.9945 137.674C50.8674 137.77 50.8038 137.929 50.8038 138.088" stroke="black" stroke-miterlimit="10" stroke-linecap="round" stroke-linejoin="round"/>
<path d="M52.5843 138.151C52.6476 138.183 52.7109 138.183 52.7742 138.215" stroke="black" stroke-miterlimit="10" stroke-linecap="round" stroke-linejoin="round"/>
<path d="M44.1587 130.902C43.968 130.87 43.809 130.807 43.6182 130.775" stroke="black" stroke-miterlimit="10" stroke-linecap="round" stroke-linejoin="round"/>
<path d="M44.8264 130.107C44.8264 129.853 44.8264 129.63 44.8264 129.376" stroke="black" stroke-miterlimit="10" stroke-linecap="round" stroke-linejoin="round"/>
<path d="M45.7485 131.379C45.8756 131.22 46.0982 131.093 46.3208 131.061" stroke="black" stroke-miterlimit="10" stroke-linecap="round" stroke-linejoin="round"/>
<path d="M46.0028 132.746C46.13 132.715 46.2572 132.715 46.3843 132.683" stroke="black" stroke-miterlimit="10" stroke-linecap="round" stroke-linejoin="round"/>
<path d="M45.3987 133.541C45.3033 133.605 45.1761 133.668 45.0808 133.732" stroke="black" stroke-miterlimit="10" stroke-linecap="round" stroke-linejoin="round"/>
<path d="M60.5647 154.048H49.5002L46.3843 139.932H63.4262L60.5647 154.048Z" fill="#F4F4F5" stroke="black" stroke-miterlimit="10" stroke-linecap="round" stroke-linejoin="round"/>
<path d="M47.0202 142.825H62.8221" stroke="black" stroke-miterlimit="10" stroke-linecap="round" stroke-linejoin="round"/>
<path d="M59.5155 148.739C59.5155 148.739 58.9114 151.791 58.5934 152.268Z" fill="#F4F4F5"/>
<path d="M59.5155 148.739C59.5155 148.739 58.9114 151.791 58.5934 152.268" stroke="black" stroke-miterlimit="10" stroke-linecap="round" stroke-linejoin="round"/>
<path d="M126.888 97.7405L126.125 97.8995C125.998 97.9313 125.839 97.8359 125.807 97.7087L122.5 82.0658C122.468 81.9387 122.564 81.7797 122.691 81.7479L123.454 81.5889C123.581 81.5571 123.74 81.6525 123.772 81.7797L127.079 97.4226C127.11 97.5815 127.015 97.7405 126.888 97.7405Z" fill="#EEDBEB" stroke="black" stroke-width="0.5" stroke-miterlimit="10" stroke-linecap="round" stroke-linejoin="round"/>
</svg>
